<?xml version="1.0" encoding="UTF-8"?>
<!DOCTYPE svg PUBLIC "-//W3C//DTD SVG 1.1//EN" "http://www.w3.org/Graphics/SVG/1.1/DTD/svg11.dtd">
<!-- Creator: CorelDRAW 2020 (64-Bit) -->
<svg xmlns="http://www.w3.org/2000/svg" xml:space="preserve" width="1.9685in" height="0.736457in" version="1.1" style="shape-rendering:geometricPrecision; text-rendering:geometricPrecision; image-rendering:optimizeQuality; fill-rule:evenodd; clip-rule:evenodd"
viewBox="0 0 1948.01 728.79"
 xmlns:xlink="http://www.w3.org/1999/xlink"
 xmlns:xodm="http://www.corel.com/coreldraw/odm/2003">
 <defs>
  <style type="text/css">
   <![CDATA[
    .fil1 {fill:#1A1A1A}
    .fil0 {fill:#1A1A1A;fill-rule:nonzero}
   ]]>
  </style>
 </defs>
 <g id="Layer_x0020_1">
  <metadata id="CorelCorpID_0Corel-Layer"/>
  <g id="_2092585555216">
   <g>
    <g>
     <path class="fil0" d="M1145.07 96.49l-0.01 -0.01 0.21 -0.23 6.66 -7.26 5.65 5.19c0.14,0.13 0.22,0.31 0.23,0.5 0.01,0.18 -0.05,0.37 -0.19,0.51 -0.13,0.14 -0.32,0.23 -0.49,0.23l-0 0c-0.18,0.01 -0.37,-0.05 -0.51,-0.19l-2.79 -2.56 -252.33 270.53 -0.18 -0.45c-0.12,-0.31 -0.27,-0.62 -0.44,-0.92 -0.14,-0.25 -0.3,-0.49 -0.47,-0.73l-0.01 -0.02 -0.01 -0.01 -0.01 -0.01 -0.01 -0.02 -0.01 -0.01 -0.01 -0.01 -0.01 -0.02 -0.01 -0.01 -0.01 -0.01 -0.01 -0.02 -0.01 -0.02 -0 -0.01 -0 -0 -0.01 -0.02 -0.01 -0.01 -0.01 -0.02c-0.1,-0.13 -0.2,-0.26 -0.31,-0.38l0 0c-0.14,-0.15 -0.27,-0.3 -0.42,-0.44l-0.21 -0.21 0.2 -0.22 245.56 -263.16z"/>
     <g>
      <path class="fil0" d="M811 339.37l1.7 -1.85c7.94,-8.65 18.7,-13.27 29.64,-13.74 10.94,-0.47 22.05,3.21 30.7,11.15l26.7 24.51c1.73,1.58 2.65,3.73 2.74,5.91 0.09,2.18 -0.64,4.39 -2.22,6.12l-5.79 6.32 -3.4 -3.12c-0.31,-0.28 -0.7,-0.41 -1.09,-0.4 -0.39,0.02 -0.77,0.18 -1.05,0.49l-0.08 0.08c-0.28,0.31 -0.41,0.7 -0.4,1.09 0.02,0.39 0.18,0.77 0.49,1.05l3.39 3.12 -2.07 2.26 -3.4 -3.12c-0.31,-0.28 -0.7,-0.41 -1.09,-0.4 -0.39,0.02 -0.77,0.18 -1.05,0.49l-0.08 0.09c-0.28,0.31 -0.41,0.7 -0.4,1.09 0.02,0.39 0.18,0.77 0.49,1.05l3.39 3.12 -2.17 2.36 -3.4 -3.12c-0.31,-0.28 -0.7,-0.41 -1.09,-0.4 -0.39,0.02 -0.77,0.18 -1.05,0.49l-0.08 0.08c-0.28,0.31 -0.41,0.71 -0.4,1.09 0.02,0.39 0.18,0.77 0.49,1.06l3.39 3.12 -2.07 2.26 -3.4 -3.12c-0.31,-0.28 -0.7,-0.41 -1.09,-0.4 -0.39,0.02 -0.77,0.18 -1.05,0.49l-0.08 0.08c-0.28,0.31 -0.41,0.7 -0.4,1.09 0.02,0.39 0.18,0.77 0.49,1.05l3.4 3.12 -1.99 2.17 -3.39 -3.12c-0.31,-0.28 -0.71,-0.41 -1.09,-0.4 -0.39,0.02 -0.77,0.18 -1.06,0.49l-0.07 0.08c-0.28,0.31 -0.42,0.71 -0.4,1.09 0.02,0.39 0.18,0.77 0.49,1.06l3.4 3.11 -0.21 0.23c-0.36,0.39 -0.72,0.76 -1.08,1.13 -0.38,0.38 -0.75,0.74 -1.12,1.08l-0.5 0.47 -0.01 -0.69c-0.02,-1.08 -0.25,-2.3 -1.01,-3.24 -0.74,-0.93 -2,-1.6 -4.09,-1.65 -1.38,1.11 -19.6,15.22 -39.18,4.61l-0.02 -0.01c-0.02,-0.01 -6.94,-4.21 -9.33,-6.39 -0.21,-0.13 -2.06,-1.11 -4.35,1.61 -0.52,0.62 -0.84,1.2 -1.02,1.75 -0.18,0.54 -0.21,1.04 -0.17,1.5l-0.52 0.25c-8.34,-7.99 -12.74,-18.67 -13.08,-29.47 -0.35,-10.79 3.34,-21.71 11.17,-30.24zm2.15 -1.43l-1.7 1.85c-7.71,8.41 -11.35,19.17 -11.01,29.8 0.34,10.43 4.5,20.73 12.38,28.55 0.03,-0.32 0.09,-0.65 0.2,-0.99 0.2,-0.62 0.56,-1.27 1.13,-1.95 2.79,-3.3 5.16,-1.72 5.17,-1.72l0.04 0.04c2.29,2.1 9.02,6.19 9.25,6.33 19.97,10.81 38.53,-4.58 38.58,-4.62l0.19 -0.07c2.36,0.02 3.81,0.8 4.67,1.87 0.7,0.87 1.01,1.94 1.1,2.95 0.21,-0.2 0.42,-0.41 0.63,-0.62 0.29,-0.29 0.57,-0.58 0.85,-0.88l-2.94 -2.7c-0.43,-0.39 -0.66,-0.93 -0.69,-1.48l0 0c-0.02,-0.55 0.16,-1.1 0.56,-1.53l0.07 -0.09c0.4,-0.43 0.94,-0.66 1.48,-0.68l0 0c0.55,-0.02 1.1,0.16 1.53,0.55l2.95 2.7 1.16 -1.27 -2.95 -2.7c-0.43,-0.39 -0.66,-0.93 -0.69,-1.48l0 0c-0.02,-0.55 0.16,-1.1 0.56,-1.53l0.08 -0.09c0.39,-0.43 0.93,-0.66 1.48,-0.69l0 0c0.55,-0.02 1.1,0.16 1.53,0.56l2.95 2.7 1.24 -1.36 -2.95 -2.7c-0.43,-0.4 -0.66,-0.94 -0.69,-1.48 -0.02,-0.55 0.16,-1.1 0.56,-1.53l0.08 -0.08c0.4,-0.43 0.93,-0.66 1.48,-0.69l0 0c0.55,-0.02 1.1,0.16 1.53,0.55l2.95 2.7 1.34 -1.46 -2.95 -2.7c-0.43,-0.4 -0.66,-0.93 -0.69,-1.48l0 0c-0.02,-0.55 0.16,-1.1 0.56,-1.54l0.08 -0.08c0.4,-0.43 0.93,-0.66 1.48,-0.69l0 0c0.54,-0.02 1.1,0.16 1.53,0.56l2.95 2.7 1.24 -1.35 -2.95 -2.7c-0.43,-0.39 -0.66,-0.93 -0.69,-1.48l0 0c-0.02,-0.55 0.16,-1.1 0.55,-1.53l0.08 -0.09c0.4,-0.43 0.93,-0.66 1.48,-0.69l0 0c0.55,-0.02 1.1,0.16 1.53,0.56l2.94 2.7 5.38 -5.86c1.47,-1.6 2.15,-3.66 2.06,-5.68 -0.09,-2.02 -0.94,-4.01 -2.54,-5.48l-26.7 -24.51c-8.53,-7.83 -19.48,-11.45 -30.26,-10.99 -10.78,0.46 -21.39,5.01 -29.21,13.54z"/>
      <path class="fil0" d="M810.6 339l1.69 -1.85c3.95,-4.3 8.58,-7.61 13.58,-9.93 5.19,-2.41 10.79,-3.74 16.44,-3.99 5.64,-0.24 11.33,0.61 16.71,2.57 5.18,1.88 10.08,4.79 14.38,8.73l26.7 24.51c0.9,0.82 1.59,1.8 2.08,2.84 0.5,1.09 0.78,2.26 0.83,3.44 0.05,1.18 -0.13,2.37 -0.54,3.49 -0.39,1.09 -1.01,2.12 -1.83,3.01l-6.16 6.71 -3.79 -3.48c-0.1,-0.09 -0.21,-0.16 -0.32,-0.19 -0.12,-0.04 -0.25,-0.06 -0.38,-0.06 -0.12,0 -0.25,0.04 -0.37,0.09 -0.11,0.05 -0.22,0.13 -0.31,0.23l-0.07 0.08c-0.09,0.1 -0.16,0.21 -0.2,0.32 -0.04,0.12 -0.06,0.25 -0.06,0.38 0,0.12 0.04,0.25 0.09,0.37 0.05,0.11 0.12,0.22 0.22,0.3l3.8 3.48 -2.81 3.05 -3.79 -3.48c-0.1,-0.09 -0.21,-0.16 -0.32,-0.2 -0.12,-0.04 -0.25,-0.06 -0.38,-0.05 -0.12,0 -0.25,0.04 -0.37,0.09 -0.11,0.05 -0.21,0.13 -0.3,0.22l-0.08 0.09c-0.09,0.1 -0.15,0.21 -0.19,0.32 -0.04,0.12 -0.06,0.25 -0.06,0.38 0,0.12 0.04,0.25 0.09,0.37 0.05,0.11 0.13,0.21 0.23,0.3l3.79 3.48 -2.9 3.16 -3.79 -3.48c-0.1,-0.09 -0.21,-0.16 -0.32,-0.2 -0.12,-0.04 -0.25,-0.06 -0.38,-0.06 -0.12,0 -0.25,0.04 -0.37,0.09 -0.11,0.05 -0.22,0.12 -0.3,0.22l-0.08 0.09c-0.09,0.09 -0.15,0.2 -0.19,0.32 -0.04,0.12 -0.06,0.25 -0.06,0.38 0,0.13 0.04,0.26 0.09,0.37 0.05,0.12 0.12,0.22 0.22,0.3l3.8 3.48 -2.81 3.05 -3.79 -3.48c-0.1,-0.09 -0.21,-0.16 -0.32,-0.19 -0.12,-0.05 -0.25,-0.07 -0.38,-0.06 -0.12,0 -0.25,0.04 -0.37,0.09 -0.11,0.05 -0.21,0.13 -0.3,0.23l-0.07 0.08c-0.09,0.1 -0.16,0.21 -0.2,0.32 -0.05,0.12 -0.07,0.25 -0.06,0.38 0,0.12 0.04,0.26 0.09,0.37 0.05,0.11 0.13,0.22 0.22,0.3l3.79 3.48 -2.72 2.97 -3.79 -3.48c-0.1,-0.09 -0.21,-0.16 -0.32,-0.19 -0.12,-0.04 -0.25,-0.07 -0.38,-0.06 -0.12,0 -0.25,0.04 -0.37,0.09 -0.11,0.05 -0.22,0.13 -0.3,0.23l-0.08 0.08c-0.09,0.1 -0.16,0.21 -0.2,0.32 -0.04,0.12 -0.06,0.25 -0.06,0.38 0.01,0.13 0.04,0.26 0.09,0.37 0.05,0.11 0.13,0.22 0.22,0.3l3.79 3.48 -1.12 1.2 -0.55 0.56 -0.57 0.56 -1.96 1.83 -0.03 -1.9c-0.01,-0.54 -0.08,-1.13 -0.25,-1.68 -0.14,-0.44 -0.34,-0.86 -0.64,-1.24 -0.34,-0.42 -0.8,-0.79 -1.44,-1.04 -0.55,-0.22 -1.22,-0.36 -2.05,-0.4 -1.11,0.86 -5.92,4.43 -12.78,6.67 -7.29,2.38 -16.89,3.26 -26.84,-2.12l-0.04 -0.02c-0.01,-0.01 -3.11,-1.89 -5.88,-3.78 -1.38,-0.94 -2.68,-1.89 -3.5,-2.64 -0.18,-0.09 -0.78,-0.34 -1.64,-0.02 -0.57,0.21 -1.24,0.66 -1.98,1.54 -0.24,0.28 -0.43,0.55 -0.58,0.81 -0.15,0.26 -0.26,0.51 -0.34,0.75 -0.07,0.23 -0.12,0.46 -0.14,0.67 -0.02,0.21 -0.02,0.42 -0,0.62l0.04 0.37 -1.19 0.58 -0.27 -0.26c-4.14,-3.97 -7.33,-8.59 -9.54,-13.57 -2.29,-5.16 -3.53,-10.7 -3.71,-16.27 -0.18,-5.56 0.7,-11.17 2.66,-16.46 1.88,-5.1 4.76,-9.92 8.65,-14.16zm2.95 -0.7l-1.69 1.85c-3.74,4.07 -6.5,8.7 -8.31,13.59 -1.88,5.1 -2.73,10.48 -2.56,15.83 0.17,5.24 1.31,10.45 3.42,15.31 1.91,4.4 4.61,8.52 8.08,12.15l0.02 -0.05c0.11,-0.34 0.27,-0.7 0.47,-1.05 0.2,-0.35 0.45,-0.72 0.76,-1.08 3.08,-3.65 5.84,-1.84 5.87,-1.82l0.12 0.09c0.76,0.69 2.02,1.62 3.38,2.55 2.65,1.81 5.62,3.62 5.79,3.72 19.57,10.58 37.78,-4.43 37.96,-4.57l0 0 0.16 -0.1 0.2 -0.07 0.18 -0.03c1.19,0.01 2.16,0.21 2.96,0.53l0.35 0.15c-0.14,-0.3 -0.21,-0.64 -0.23,-0.97 -0.01,-0.35 0.04,-0.7 0.16,-1.03 0.12,-0.32 0.3,-0.62 0.54,-0.89l0.08 -0.09c0.25,-0.26 0.53,-0.47 0.84,-0.61 0.32,-0.15 0.66,-0.23 1.01,-0.25l0.02 -0c0.34,-0.01 0.68,0.04 1.01,0.16 0.32,0.12 0.62,0.3 0.88,0.54l2.55 2.33 0.43 -0.47 -2.54 -2.33c-0.26,-0.25 -0.47,-0.53 -0.62,-0.84 -0.15,-0.32 -0.23,-0.67 -0.25,-1.02l-0.01 -0.24 0.01 -0.01c0.01,-0.26 0.07,-0.53 0.16,-0.78 0.12,-0.32 0.3,-0.63 0.54,-0.89l0.07 -0.08c0.25,-0.27 0.53,-0.48 0.84,-0.62 0.32,-0.15 0.67,-0.23 1.01,-0.25l0.02 -0c0.34,-0.01 0.69,0.04 1.01,0.16 0.32,0.12 0.63,0.3 0.89,0.54l2.55 2.33 0.51 -0.55 -2.55 -2.34c-0.26,-0.25 -0.47,-0.53 -0.61,-0.84 -0.15,-0.32 -0.23,-0.66 -0.25,-1.01 -0.02,-0.35 0.04,-0.7 0.16,-1.03 0.12,-0.32 0.3,-0.62 0.54,-0.89l0.08 -0.09c0.24,-0.26 0.53,-0.47 0.84,-0.62 0.32,-0.15 0.67,-0.23 1.01,-0.25l0.02 0c0.34,-0.01 0.69,0.04 1.01,0.16 0.32,0.11 0.62,0.3 0.89,0.54l2.55 2.34 0.61 -0.66 -2.55 -2.34c-0.26,-0.25 -0.47,-0.53 -0.61,-0.84 -0.1,-0.22 -0.18,-0.45 -0.21,-0.69l-0.02 -0.01 -0.02 -0.32c-0.01,-0.35 0.04,-0.7 0.16,-1.03 0.12,-0.32 0.3,-0.63 0.54,-0.89l0.08 -0.08c0.24,-0.26 0.53,-0.47 0.84,-0.62 0.32,-0.15 0.67,-0.23 1.02,-0.25l0.24 -0.01 0.01 0.01c0.26,0.01 0.53,0.07 0.78,0.16 0.32,0.12 0.63,0.3 0.89,0.54l2.55 2.33 0.51 -0.56 -2.55 -2.34c-0.26,-0.25 -0.47,-0.53 -0.61,-0.84 -0.15,-0.32 -0.23,-0.66 -0.25,-1.02l-0.01 -0.24 0.01 -0.01c0.02,-0.26 0.07,-0.53 0.16,-0.78 0.11,-0.32 0.29,-0.62 0.54,-0.89l0.07 -0.08c0.25,-0.27 0.53,-0.48 0.84,-0.62 0.32,-0.15 0.67,-0.23 1.02,-0.25l0.02 -0c0.34,-0.01 0.69,0.04 1.01,0.16 0.32,0.12 0.63,0.3 0.89,0.54l2.54 2.33 5.01 -5.46c0.67,-0.73 1.17,-1.57 1.48,-2.44 0.34,-0.92 0.48,-1.89 0.44,-2.85 -0.04,-0.96 -0.27,-1.91 -0.68,-2.8 -0.39,-0.85 -0.96,-1.64 -1.69,-2.31l-26.7 -24.51c-4.13,-3.79 -8.83,-6.58 -13.81,-8.39 -5.17,-1.88 -10.64,-2.7 -16.07,-2.46 -5.42,0.23 -10.8,1.52 -15.79,3.83 -4.8,2.22 -9.25,5.41 -13.04,9.54zm59.64 59.57l0.16 0.4c0.07,0.19 0.12,0.39 0.17,0.59l0.35 -0.36 -0.69 -0.63z"/>
      <path class="fil0" d="M840.63 324.04l1.63 -3.18c4.85,-0.85 9.71,-1.69 14.56,-2.54 5.34,4.53 10.68,9.07 16.02,13.6l-0.08 0.2c-0,0 -0.48,1.2 -1.01,2.03l-0.19 0.3 -0.27 -0.23c-4.28,-3.61 -9.11,-6.22 -14.17,-7.85 -5.25,-1.69 -10.76,-2.31 -16.2,-1.89l-0.55 0.04 0.25 -0.49zm2.04 -2.63l-1.25 2.43c5.34,-0.34 10.74,0.3 15.89,1.96 5.03,1.61 9.83,4.19 14.1,7.73 0.3,-0.53 0.56,-1.12 0.69,-1.43l-15.46 -13.12 -13.98 2.44z"/>
      <path class="fil0" d="M840.15 323.79l1.76 -3.42c5.03,-0.87 10.05,-1.75 15.07,-2.63 5.5,4.68 11,9.35 16.51,14.01l-0.23 0.57c-0.05,0.13 -0.26,0.64 -0.53,1.17 -0.16,0.32 -0.34,0.65 -0.52,0.94l-0.52 0.82 -0.74 -0.62c-2.09,-1.76 -4.31,-3.28 -6.62,-4.56 -2.36,-1.31 -4.84,-2.37 -7.38,-3.18 -2.58,-0.83 -5.22,-1.39 -7.89,-1.71 -2.69,-0.32 -5.4,-0.37 -8.1,-0.16l-1.51 0.12 0.69 -1.34zm2.87 -1.9l-0.69 1.35c2.4,-0.1 4.82,-0.01 7.2,0.29 2.68,0.33 5.34,0.91 7.94,1.75 2.58,0.83 5.1,1.91 7.52,3.23 2.17,1.19 4.27,2.58 6.25,4.18l0.21 -0.44 -14.96 -12.7 -13.47 2.35z"/>
      <path class="fil0" d="M871.58 392.76l0.07 -0.09c0.4,-0.43 0.94,-0.66 1.48,-0.68l0 0c0.55,-0.02 1.1,0.16 1.53,0.55l3.4 3.12c0.43,0.4 0.66,0.94 0.69,1.48 0.02,0.55 -0.16,1.1 -0.56,1.53l-0.08 0.08c-0.4,0.43 -0.93,0.66 -1.48,0.69 -0.55,0.02 -1.1,-0.16 -1.53,-0.55l-3.4 -3.12c-0.43,-0.39 -0.66,-0.93 -0.69,-1.48l0 0c-0.02,-0.55 0.16,-1.1 0.56,-1.53zm0.53 0.33l-0.07 0.08c-0.28,0.31 -0.42,0.71 -0.4,1.09 0.02,0.39 0.18,0.77 0.49,1.06l3.4 3.12c0.31,0.28 0.7,0.41 1.09,0.39 0.39,-0.02 0.77,-0.18 1.05,-0.49l0.08 -0.08c0.28,-0.31 0.41,-0.71 0.4,-1.09 -0.02,-0.39 -0.18,-0.77 -0.49,-1.06l-3.4 -3.12c-0.31,-0.28 -0.71,-0.41 -1.09,-0.4 -0.39,0.02 -0.77,0.18 -1.06,0.49z"/>
      <path class="fil0" d="M871.17 392.39l0.08 -0.09c0.25,-0.26 0.53,-0.47 0.84,-0.61 0.32,-0.15 0.66,-0.23 1.01,-0.25l0.02 -0c0.34,-0.01 0.68,0.04 1.01,0.16 0.32,0.12 0.62,0.3 0.88,0.54l3.41 3.12c0.26,0.25 0.47,0.53 0.62,0.84 0.15,0.32 0.23,0.67 0.24,1.02 0.02,0.35 -0.04,0.7 -0.16,1.03 -0.12,0.32 -0.3,0.63 -0.54,0.89l-0.08 0.09c-0.25,0.26 -0.53,0.47 -0.84,0.61 -0.32,0.15 -0.67,0.23 -1.02,0.25 -0.35,0.02 -0.7,-0.04 -1.03,-0.16 -0.32,-0.11 -0.62,-0.3 -0.89,-0.54l-3.4 -3.12c-0.26,-0.25 -0.47,-0.53 -0.62,-0.84 -0.15,-0.32 -0.23,-0.66 -0.25,-1.02 -0.01,-0.35 0.04,-0.7 0.16,-1.03 0.12,-0.32 0.3,-0.62 0.54,-0.89zm1.33 1.06l-0.08 0.08c-0.09,0.1 -0.16,0.21 -0.2,0.32 -0.04,0.12 -0.06,0.25 -0.06,0.38 0.01,0.13 0.04,0.26 0.09,0.37 0.05,0.11 0.13,0.22 0.22,0.3l3.4 3.12c0.1,0.09 0.21,0.16 0.32,0.2 0.12,0.04 0.25,0.06 0.38,0.06 0.12,-0.01 0.25,-0.04 0.37,-0.09 0.11,-0.05 0.21,-0.12 0.3,-0.22l0.08 -0.09c0.09,-0.09 0.16,-0.21 0.19,-0.32 0.04,-0.12 0.06,-0.25 0.06,-0.38 -0,-0.12 -0.04,-0.25 -0.09,-0.37 -0.05,-0.11 -0.13,-0.22 -0.23,-0.31l-3.4 -3.12c-0.1,-0.09 -0.21,-0.16 -0.32,-0.19 -0.12,-0.04 -0.25,-0.07 -0.38,-0.06 -0.12,0 -0.25,0.04 -0.37,0.09 -0.11,0.05 -0.22,0.13 -0.3,0.23z"/>
      <path class="fil0" d="M875.7 388.27l0.08 -0.09c0.39,-0.43 0.93,-0.66 1.48,-0.69l0 0c0.55,-0.02 1.1,0.16 1.53,0.56l3.4 3.12c0.43,0.4 0.66,0.94 0.69,1.48 0.02,0.55 -0.16,1.1 -0.56,1.53l-0.07 0.08c-0.4,0.43 -0.94,0.66 -1.48,0.69 -0.55,0.02 -1.1,-0.16 -1.53,-0.56l-3.4 -3.12c-0.43,-0.39 -0.66,-0.93 -0.69,-1.48l0 0c-0.02,-0.55 0.16,-1.1 0.56,-1.53zm0.53 0.33l-0.08 0.08c-0.28,0.31 -0.41,0.7 -0.4,1.09 0.02,0.39 0.18,0.77 0.49,1.05l3.4 3.12c0.31,0.28 0.71,0.41 1.09,0.39 0.39,-0.02 0.77,-0.18 1.06,-0.49l0.07 -0.09c0.28,-0.3 0.41,-0.7 0.4,-1.09 -0.02,-0.39 -0.18,-0.77 -0.49,-1.05l-3.4 -3.12c-0.31,-0.28 -0.7,-0.41 -1.09,-0.4 -0.39,0.02 -0.77,0.18 -1.05,0.49z"/>
      <path class="fil0" d="M875.3 387.9l0.07 -0.08c0.25,-0.27 0.53,-0.48 0.84,-0.62 0.32,-0.15 0.67,-0.23 1.01,-0.25l0.02 -0c0.34,-0.01 0.69,0.04 1.01,0.16 0.32,0.12 0.63,0.3 0.89,0.54l3.4 3.12c0.26,0.25 0.47,0.53 0.61,0.84 0.15,0.32 0.23,0.67 0.25,1.02 0.02,0.35 -0.04,0.7 -0.16,1.03 -0.12,0.32 -0.3,0.63 -0.54,0.89l-0.08 0.08c-0.25,0.27 -0.53,0.47 -0.84,0.62 -0.32,0.15 -0.67,0.23 -1.01,0.25 -0.35,0.02 -0.7,-0.04 -1.03,-0.16 -0.32,-0.12 -0.62,-0.3 -0.89,-0.54l-3.4 -3.12c-0.26,-0.25 -0.47,-0.53 -0.62,-0.84 -0.15,-0.32 -0.23,-0.67 -0.25,-1.02l-0.01 -0.24 0.01 -0.01c0.01,-0.26 0.07,-0.53 0.16,-0.78 0.12,-0.32 0.3,-0.63 0.54,-0.89zm1.32 1.06l-0.07 0.08c-0.09,0.1 -0.16,0.21 -0.2,0.32 -0.05,0.12 -0.07,0.25 -0.06,0.38 0,0.12 0.04,0.26 0.09,0.37 0.05,0.11 0.13,0.22 0.22,0.3l3.4 3.12c0.1,0.09 0.21,0.16 0.32,0.2 0.12,0.04 0.25,0.06 0.38,0.05 0.12,-0 0.25,-0.04 0.37,-0.09 0.11,-0.05 0.22,-0.12 0.3,-0.22l0.08 -0.09c0.09,-0.1 0.16,-0.21 0.2,-0.32 0.04,-0.12 0.06,-0.25 0.05,-0.38 -0,-0.12 -0.04,-0.25 -0.09,-0.37 -0.05,-0.11 -0.13,-0.22 -0.22,-0.31l-3.4 -3.12c-0.1,-0.09 -0.21,-0.16 -0.32,-0.19 -0.12,-0.05 -0.25,-0.07 -0.38,-0.06 -0.12,0 -0.25,0.04 -0.37,0.09 -0.11,0.05 -0.21,0.13 -0.3,0.23z"/>
      <path class="fil0" d="M879.9 383.69l0.08 -0.08c0.4,-0.43 0.93,-0.66 1.48,-0.69l0 0c0.55,-0.02 1.1,0.16 1.53,0.55l3.4 3.12c0.43,0.39 0.66,0.93 0.69,1.48 0.02,0.55 -0.16,1.1 -0.56,1.53l-0.07 0.09c-0.4,0.43 -0.93,0.66 -1.48,0.68l0 0c-0.55,0.02 -1.1,-0.16 -1.53,-0.55l-3.4 -3.12c-0.43,-0.4 -0.66,-0.94 -0.69,-1.48 -0.02,-0.55 0.16,-1.1 0.56,-1.53zm0.53 0.33l-0.08 0.08c-0.28,0.31 -0.41,0.71 -0.4,1.09 0.02,0.39 0.18,0.77 0.49,1.06l3.4 3.12c0.31,0.28 0.7,0.41 1.09,0.4l0 0c0.39,-0.02 0.77,-0.18 1.05,-0.49l0.08 -0.08c0.28,-0.31 0.41,-0.7 0.39,-1.09 -0.02,-0.39 -0.18,-0.77 -0.49,-1.06l-3.4 -3.12c-0.31,-0.28 -0.7,-0.41 -1.09,-0.4 -0.39,0.02 -0.77,0.18 -1.05,0.49z"/>
      <path class="fil0" d="M879.5 383.32l0.08 -0.08c0.24,-0.26 0.53,-0.47 0.84,-0.62 0.32,-0.15 0.67,-0.23 1.01,-0.25l0.02 0c0.34,-0.01 0.69,0.04 1.01,0.16 0.32,0.11 0.62,0.3 0.89,0.54l3.4 3.12c0.26,0.25 0.47,0.53 0.62,0.84 0.15,0.32 0.23,0.66 0.25,1.02 0.02,0.34 -0.04,0.69 -0.16,1.03 -0.11,0.32 -0.3,0.62 -0.54,0.89l-0.08 0.09c-0.25,0.26 -0.53,0.47 -0.84,0.61 -0.32,0.15 -0.66,0.23 -1.01,0.25l-0.02 0c-0.34,0.01 -0.68,-0.04 -1.01,-0.16 -0.32,-0.11 -0.62,-0.3 -0.89,-0.54l-3.41 -3.12c-0.26,-0.25 -0.47,-0.53 -0.61,-0.84 -0.15,-0.32 -0.23,-0.66 -0.25,-1.01 -0.02,-0.35 0.04,-0.7 0.16,-1.03 0.12,-0.32 0.3,-0.62 0.54,-0.89zm1.32 1.06l-0.08 0.09c-0.09,0.09 -0.15,0.2 -0.19,0.32 -0.04,0.12 -0.06,0.25 -0.06,0.38 0,0.13 0.04,0.26 0.09,0.37 0.05,0.12 0.12,0.22 0.22,0.3l3.41 3.12c0.09,0.09 0.2,0.15 0.32,0.19 0.12,0.05 0.25,0.07 0.38,0.06 0.13,-0 0.26,-0.04 0.37,-0.09 0.12,-0.05 0.22,-0.13 0.31,-0.22l0.07 -0.09c0.09,-0.1 0.16,-0.21 0.2,-0.32 0.04,-0.12 0.06,-0.25 0.06,-0.38 -0.01,-0.13 -0.04,-0.26 -0.09,-0.37 -0.05,-0.11 -0.12,-0.22 -0.22,-0.3l-3.41 -3.12c-0.1,-0.09 -0.21,-0.16 -0.32,-0.2 -0.12,-0.04 -0.25,-0.06 -0.38,-0.06 -0.12,0 -0.25,0.04 -0.37,0.09 -0.11,0.05 -0.22,0.12 -0.3,0.22z"/>
      <path class="fil0" d="M884.19 379l0.08 -0.08c0.4,-0.43 0.93,-0.66 1.48,-0.69l0 0c0.54,-0.02 1.1,0.16 1.53,0.56l3.4 3.12c0.43,0.4 0.66,0.93 0.69,1.48l0 0c0.02,0.55 -0.16,1.1 -0.56,1.54l-0.07 0.08c-0.4,0.43 -0.94,0.66 -1.48,0.69 -0.55,0.02 -1.1,-0.16 -1.53,-0.56l-3.4 -3.12c-0.43,-0.4 -0.66,-0.93 -0.69,-1.48l0 0c-0.02,-0.55 0.16,-1.1 0.56,-1.54zm0.53 0.33l-0.08 0.09c-0.28,0.31 -0.41,0.7 -0.4,1.09 0.02,0.39 0.18,0.77 0.49,1.05l3.4 3.12c0.31,0.28 0.71,0.41 1.09,0.4 0.39,-0.02 0.77,-0.18 1.06,-0.49l0.07 -0.09c0.28,-0.31 0.41,-0.7 0.4,-1.09 -0.02,-0.39 -0.18,-0.77 -0.49,-1.05l-3.4 -3.12c-0.31,-0.28 -0.7,-0.41 -1.09,-0.4 -0.39,0.02 -0.77,0.18 -1.05,0.49z"/>
      <path class="fil0" d="M883.8 378.64l0.08 -0.08c0.24,-0.26 0.53,-0.47 0.84,-0.62 0.32,-0.15 0.67,-0.23 1.02,-0.25l0.24 -0.01 0.01 0.01c0.26,0.01 0.53,0.07 0.78,0.16 0.32,0.12 0.63,0.3 0.89,0.54l3.4 3.12c0.27,0.25 0.47,0.53 0.62,0.84 0.15,0.32 0.23,0.67 0.25,1.01 0.02,0.35 -0.04,0.7 -0.16,1.03 -0.12,0.32 -0.3,0.63 -0.54,0.89l-0.08 0.08c-0.25,0.26 -0.53,0.47 -0.84,0.62 -0.32,0.15 -0.66,0.23 -1.01,0.25 -0.35,0.01 -0.7,-0.04 -1.03,-0.16 -0.32,-0.12 -0.63,-0.3 -0.89,-0.54l-3.4 -3.12c-0.26,-0.25 -0.47,-0.53 -0.61,-0.84 -0.1,-0.22 -0.18,-0.45 -0.21,-0.69l-0.02 -0.01 -0.02 -0.32c-0.01,-0.35 0.04,-0.7 0.16,-1.03 0.12,-0.32 0.3,-0.63 0.54,-0.89zm1.32 1.06l-0.08 0.09c-0.09,0.1 -0.15,0.21 -0.19,0.32 -0.04,0.12 -0.06,0.25 -0.06,0.38 0,0.12 0.04,0.25 0.09,0.37 0.05,0.11 0.13,0.21 0.23,0.3l3.4 3.12c0.09,0.09 0.21,0.16 0.32,0.19 0.12,0.05 0.25,0.07 0.37,0.06 0.13,-0 0.26,-0.04 0.37,-0.09 0.11,-0.05 0.22,-0.13 0.31,-0.22l0.07 -0.09c0.09,-0.1 0.16,-0.21 0.2,-0.32 0.04,-0.12 0.06,-0.25 0.06,-0.38 -0.01,-0.12 -0.04,-0.25 -0.09,-0.37 -0.05,-0.11 -0.12,-0.21 -0.22,-0.3l-3.4 -3.12c-0.1,-0.09 -0.21,-0.16 -0.32,-0.2 -0.12,-0.04 -0.25,-0.06 -0.38,-0.05 -0.12,0 -0.25,0.04 -0.37,0.09 -0.11,0.05 -0.21,0.13 -0.3,0.22z"/>
      <path class="fil0" d="M888.39 374.43l0.08 -0.09c0.4,-0.43 0.93,-0.66 1.48,-0.69l0 0c0.55,-0.02 1.1,0.16 1.53,0.56l3.4 3.12c0.43,0.4 0.66,0.93 0.69,1.48l0 0c0.02,0.55 -0.16,1.1 -0.55,1.53l-0.08 0.08c-0.4,0.43 -0.93,0.66 -1.48,0.69l-0 0c-0.55,0.02 -1.1,-0.16 -1.53,-0.56l-3.4 -3.12c-0.43,-0.39 -0.66,-0.93 -0.68,-1.48l0 0c-0.02,-0.55 0.16,-1.1 0.55,-1.53zm0.53 0.33l-0.08 0.08c-0.28,0.31 -0.41,0.7 -0.4,1.09l0 0c0.02,0.39 0.18,0.77 0.49,1.05l3.4 3.12c0.31,0.28 0.7,0.41 1.09,0.39l0 0c0.39,-0.02 0.77,-0.18 1.05,-0.49l0.08 -0.09c0.28,-0.31 0.41,-0.7 0.4,-1.09l0 -0c-0.02,-0.39 -0.18,-0.77 -0.49,-1.05l-3.4 -3.12c-0.31,-0.28 -0.7,-0.41 -1.09,-0.4l0 0c-0.39,0.02 -0.77,0.18 -1.05,0.49z"/>
      <path class="fil0" d="M888 374.06l0.07 -0.08c0.25,-0.27 0.53,-0.48 0.84,-0.62 0.32,-0.15 0.67,-0.23 1.01,-0.25l0.02 -0c0.34,-0.01 0.69,0.04 1.01,0.16 0.32,0.12 0.63,0.3 0.89,0.54l3.4 3.12c0.26,0.24 0.47,0.53 0.61,0.84 0.15,0.32 0.23,0.66 0.25,1.01l0 0.02c0.01,0.34 -0.04,0.68 -0.16,1.01 -0.12,0.32 -0.3,0.62 -0.54,0.89l-0.07 0.08c-0.25,0.26 -0.53,0.47 -0.84,0.62 -0.32,0.15 -0.67,0.23 -1.01,0.25l-0.02 0c-0.34,0.01 -0.69,-0.04 -1.01,-0.16 -0.32,-0.12 -0.63,-0.3 -0.89,-0.54l-3.4 -3.12c-0.26,-0.24 -0.47,-0.53 -0.61,-0.84 -0.15,-0.32 -0.23,-0.66 -0.25,-1.01 -0.02,-0.35 0.04,-0.7 0.16,-1.03 0.12,-0.32 0.3,-0.63 0.54,-0.89zm1.32 1.06l-0.08 0.09c-0.09,0.09 -0.15,0.21 -0.19,0.32 -0.04,0.12 -0.06,0.25 -0.06,0.38l0 0.02c0.01,0.12 0.04,0.24 0.09,0.35 0.05,0.11 0.13,0.21 0.23,0.3l3.4 3.12c0.1,0.09 0.21,0.16 0.32,0.2 0.12,0.04 0.25,0.06 0.38,0.06l0.02 -0c0.12,-0.01 0.24,-0.04 0.35,-0.09 0.11,-0.05 0.22,-0.12 0.31,-0.22l0.07 -0.09c0.09,-0.09 0.16,-0.2 0.2,-0.32 0.04,-0.12 0.06,-0.25 0.06,-0.38 -0.01,-0.13 -0.04,-0.26 -0.09,-0.37 -0.05,-0.12 -0.12,-0.22 -0.22,-0.31l-3.41 -3.12c-0.09,-0.09 -0.21,-0.16 -0.32,-0.19 -0.12,-0.04 -0.25,-0.06 -0.38,-0.06l-0.02 0c-0.12,0.01 -0.24,0.04 -0.35,0.09 -0.12,0.05 -0.22,0.13 -0.31,0.22z"/>
      <path class="fil0" d="M883.79 359.18c1.27,-1.38 2.97,-2.11 4.7,-2.19 1.73,-0.07 3.49,0.51 4.87,1.78 1.38,1.26 2.11,2.96 2.19,4.7 0.07,1.73 -0.51,3.49 -1.78,4.87 -1.26,1.38 -2.96,2.11 -4.69,2.19 -1.73,0.07 -3.49,-0.51 -4.87,-1.78 -1.38,-1.27 -2.11,-2.97 -2.18,-4.7 -0.07,-1.73 0.51,-3.49 1.77,-4.87zm4.73 -1.57c-1.57,0.07 -3.12,0.74 -4.27,1.99 -1.15,1.25 -1.68,2.85 -1.61,4.43 0.07,1.57 0.73,3.12 1.99,4.27 1.25,1.15 2.85,1.68 4.43,1.62 1.57,-0.07 3.12,-0.74 4.27,-1.99 1.15,-1.25 1.68,-2.85 1.62,-4.43 -0.07,-1.57 -0.74,-3.12 -1.99,-4.27 -1.25,-1.15 -2.85,-1.68 -4.43,-1.62z"/>
      <path class="fil0" d="M883.4 358.82c0.67,-0.73 1.45,-1.29 2.3,-1.68 0.87,-0.41 1.82,-0.64 2.77,-0.67 0.95,-0.04 1.91,0.1 2.82,0.43 0.88,0.32 1.71,0.81 2.44,1.48 0.73,0.67 1.29,1.45 1.69,2.3 0.41,0.87 0.63,1.82 0.67,2.77 0.04,0.95 -0.11,1.91 -0.44,2.82 -0.32,0.88 -0.81,1.71 -1.48,2.44 -0.67,0.73 -1.45,1.29 -2.3,1.68 -0.87,0.41 -1.82,0.64 -2.77,0.67 -0.95,0.04 -1.91,-0.1 -2.82,-0.44 -0.88,-0.32 -1.71,-0.81 -2.44,-1.48 -0.73,-0.67 -1.29,-1.45 -1.68,-2.3 -0.41,-0.87 -0.64,-1.82 -0.67,-2.77 -0.04,-0.95 0.1,-1.91 0.44,-2.82 0.32,-0.88 0.81,-1.71 1.48,-2.44zm5.14 -0.67c-0.73,0.03 -1.45,0.21 -2.13,0.52 -0.65,0.3 -1.25,0.73 -1.77,1.29 -0.51,0.56 -0.89,1.2 -1.14,1.87 -0.25,0.7 -0.37,1.44 -0.34,2.17 0.03,0.73 0.21,1.45 0.52,2.13 0.3,0.65 0.73,1.25 1.29,1.77 0.56,0.51 1.2,0.89 1.87,1.14 0.7,0.25 1.44,0.37 2.17,0.34 0.73,-0.03 1.45,-0.21 2.13,-0.52 0.65,-0.3 1.25,-0.73 1.76,-1.29 0.51,-0.56 0.9,-1.2 1.14,-1.87 0.26,-0.7 0.37,-1.44 0.34,-2.17 -0.03,-0.73 -0.21,-1.46 -0.52,-2.13 -0.3,-0.65 -0.74,-1.25 -1.3,-1.76 -0.56,-0.51 -1.2,-0.89 -1.87,-1.14 -0.7,-0.25 -1.44,-0.37 -2.17,-0.34z"/>
      <path class="fil0" d="M821.3 346.85c5.84,-6.37 13.71,-9.76 21.71,-10.1 8,-0.34 16.13,2.37 22.49,8.21 6.36,5.84 9.76,13.71 10.1,21.7 0.34,8 -2.36,16.13 -8.21,22.49 -5.84,6.37 -13.71,9.76 -21.71,10.1 -8,0.34 -16.13,-2.37 -22.49,-8.21 -6.36,-5.84 -9.76,-13.71 -10.1,-21.7 -0.34,-8 2.36,-16.13 8.21,-22.49zm21.73 -9.49c-7.84,0.34 -15.55,3.67 -21.28,9.9 -5.73,6.24 -8.38,14.21 -8.05,22.05 0.34,7.84 3.66,15.55 9.9,21.28 6.24,5.73 14.21,8.38 22.05,8.05 7.84,-0.34 15.56,-3.67 21.28,-9.9 5.73,-6.24 8.38,-14.21 8.05,-22.05 -0.34,-7.84 -3.66,-15.55 -9.9,-21.28 -6.24,-5.73 -14.21,-8.38 -22.05,-8.05z"/>
      <path class="fil0" d="M820.91 346.48c2.91,-3.18 6.32,-5.63 10,-7.34 3.82,-1.78 7.93,-2.76 12.08,-2.94 4.14,-0.18 8.32,0.45 12.28,1.89 3.81,1.39 7.42,3.54 10.6,6.46 3.17,2.91 5.62,6.32 7.34,10 1.78,3.82 2.76,7.93 2.94,12.08 0.18,4.14 -0.45,8.32 -1.9,12.28 -1.39,3.81 -3.54,7.43 -6.45,10.6 -2.91,3.18 -6.33,5.63 -10,7.34 -3.82,1.78 -7.93,2.76 -12.08,2.94 -4.14,0.18 -8.32,-0.45 -12.28,-1.89 -3.81,-1.39 -7.42,-3.54 -10.6,-6.46 -3.18,-2.91 -5.63,-6.32 -7.34,-10 -1.78,-3.82 -2.76,-7.93 -2.94,-12.08 -0.18,-4.14 0.45,-8.32 1.89,-12.28 1.39,-3.81 3.54,-7.43 6.46,-10.6zm22.15 -8.58c-3.92,0.17 -7.82,1.1 -11.43,2.79 -3.48,1.62 -6.71,3.94 -9.47,6.94 -2.76,3.01 -4.79,6.42 -6.11,10.03 -1.37,3.75 -1.96,7.71 -1.8,11.63 0.17,3.92 1.1,7.82 2.79,11.43 1.62,3.48 3.94,6.71 6.94,9.47 3.01,2.76 6.42,4.8 10.03,6.11 3.75,1.37 7.71,1.96 11.64,1.8 3.92,-0.17 7.81,-1.1 11.43,-2.79 3.48,-1.62 6.71,-3.94 9.47,-6.94 2.76,-3.01 4.8,-6.42 6.11,-10.03 1.37,-3.75 1.96,-7.71 1.79,-11.63 -0.17,-3.92 -1.1,-7.82 -2.78,-11.43 -1.62,-3.48 -3.94,-6.71 -6.95,-9.47 -3.01,-2.76 -6.42,-4.8 -10.03,-6.11 -3.75,-1.37 -7.71,-1.96 -11.63,-1.8z"/>
      <path class="fil0" d="M814.56 401.39l13.33 12.23c0.37,0.32 16.81,14.2 35.22,-0.39l9.17 -9.99c0.2,-0.75 1.8,-7.34 -4.78,-7.48 -1.39,1.11 -19.6,15.21 -39.17,4.61l-0.02 -0.01c-0.02,-0.01 -6.94,-4.21 -9.33,-6.39 -0.21,-0.13 -2.06,-1.11 -4.35,1.61 -2.28,2.7 -0.69,4.94 -0.15,5.69l0.09 0.12zm12.92 12.69l-13.35 -12.25 -0.05 -0.05 -0.1 -0.14c-0.61,-0.85 -2.41,-3.37 0.18,-6.44 2.79,-3.3 5.16,-1.72 5.17,-1.72l0.04 0.04c2.29,2.1 9.02,6.19 9.25,6.33 19.97,10.81 38.53,-4.58 38.58,-4.62l0.19 -0.07c7.91,0.09 5.46,8.31 5.45,8.34l-0.07 0.12 -9.23 10.06 -0.04 0.04c-19,15.08 -35.98,0.43 -36.03,0.39l-0.01 -0.01z"/>
      <path class="fil0" d="M814.97 401.03l13.29 12.19c0.33,0.27 4.4,3.65 10.62,5.27 6.32,1.65 14.84,1.47 23.87,-5.66l9.05 -9.86c0.13,-0.53 0.45,-2.1 0.12,-3.58 -0.34,-1.52 -1.42,-2.96 -4.23,-3.09 -1.11,0.87 -5.93,4.43 -12.79,6.67 -7.29,2.38 -16.89,3.26 -26.83,-2.12l-0.04 -0.02c-0.01,-0.01 -3.11,-1.89 -5.88,-3.78 -1.38,-0.94 -2.68,-1.89 -3.5,-2.64 -0.18,-0.09 -0.78,-0.34 -1.64,-0.02 -0.57,0.21 -1.24,0.66 -1.98,1.54 -1.01,1.2 -1.17,2.28 -1.01,3.13 0.16,0.87 0.65,1.55 0.89,1.9l0.05 0.08zm12.14 13.44l-13.35 -12.25c-0.09,-0.1 -0.14,-0.18 -0.22,-0.28 -0.33,-0.46 -0.98,-1.36 -1.2,-2.6 -0.23,-1.25 -0.02,-2.81 1.41,-4.5 3.08,-3.65 5.84,-1.84 5.87,-1.82l0.12 0.09c0.76,0.69 2.02,1.62 3.38,2.55 2.65,1.81 5.62,3.62 5.79,3.72 19.57,10.58 37.78,-4.43 37.96,-4.57l0 0 0.16 -0.1 0.2 -0.07 0.18 -0.03c5.4,0.06 6.38,3.61 6.35,6.26 -0.02,1.51 -0.37,2.72 -0.39,2.76 -0.04,0.1 -0.06,0.15 -0.11,0.24l-0.08 0.11c-2.25,2.45 -7.1,8.36 -9.33,10.15 -19.26,15.29 -36.5,0.56 -36.71,0.38l-0.03 -0.02z"/>
     </g>
    </g>
    <g>
     <path class="fil0" d="M802.82 326.09l0.01 0.01 -0.21 0.23 -6.66 7.26 -5.65 -5.18c-0.14,-0.13 -0.22,-0.32 -0.23,-0.5 -0.01,-0.18 0.05,-0.37 0.18,-0.51 0.13,-0.14 0.32,-0.22 0.5,-0.23l0 0c0.18,-0.01 0.37,0.05 0.51,0.18l2.79 2.56 252.33 -270.53 0.18 0.45c0.12,0.31 0.27,0.62 0.44,0.92 0.14,0.25 0.3,0.49 0.47,0.74l0.01 0.01 0.01 0.01 0.01 0.02 0.01 0.01 0.01 0.01 0.01 0.02 0.01 0.01 0.01 0.01 0.01 0.02 0.01 0.01 0.01 0.02 0.01 0.01 0 0 0.01 0.02 0.01 0.02 0.01 0.01c0.1,0.13 0.21,0.26 0.31,0.38l0 0c0.13,0.16 0.27,0.3 0.41,0.44l0.21 0.21 -0.2 0.22 -245.56 263.16z"/>
     <g>
      <path class="fil0" d="M1136.89 83.22l-1.69 1.85c-7.94,8.65 -18.7,13.27 -29.64,13.74 -10.94,0.47 -22.05,-3.21 -30.7,-11.15l-26.7 -24.51c-1.72,-1.59 -2.65,-3.73 -2.74,-5.91 -0.09,-2.18 0.64,-4.39 2.22,-6.12l5.8 -6.32 3.39 3.12c0.31,0.28 0.7,0.41 1.09,0.4 0.39,-0.02 0.77,-0.18 1.05,-0.49l0.08 -0.09c0.28,-0.31 0.41,-0.7 0.4,-1.09 -0.02,-0.39 -0.18,-0.77 -0.49,-1.05l-3.4 -3.12 2.07 -2.26 3.39 3.12c0.31,0.28 0.71,0.41 1.09,0.4 0.39,-0.02 0.77,-0.18 1.06,-0.49l0.07 -0.08c0.28,-0.31 0.41,-0.71 0.4,-1.09 -0.02,-0.39 -0.18,-0.77 -0.49,-1.06l-3.4 -3.12 2.17 -2.36 3.39 3.12c0.31,0.28 0.71,0.41 1.09,0.4 0.39,-0.02 0.77,-0.18 1.05,-0.49l0.08 -0.08c0.28,-0.31 0.41,-0.7 0.4,-1.09 -0.02,-0.39 -0.18,-0.77 -0.49,-1.05l-3.4 -3.12 2.07 -2.26 3.39 3.12c0.31,0.28 0.71,0.41 1.09,0.4 0.39,-0.02 0.77,-0.18 1.06,-0.49l0.07 -0.09c0.28,-0.31 0.41,-0.7 0.4,-1.09 -0.02,-0.39 -0.18,-0.77 -0.49,-1.05l-3.4 -3.12 1.99 -2.17 3.4 3.12c0.31,0.28 0.7,0.41 1.09,0.4 0.39,-0.02 0.77,-0.18 1.05,-0.49l0.08 -0.09c0.28,-0.31 0.41,-0.7 0.4,-1.09 -0.02,-0.39 -0.18,-0.77 -0.49,-1.05l-3.39 -3.12 0.21 -0.23c0.36,-0.39 0.72,-0.76 1.08,-1.12 0.38,-0.38 0.75,-0.74 1.12,-1.09l0.5 -0.47 0.01 0.69c0.02,1.08 0.25,2.3 1.01,3.25 0.74,0.92 2,1.6 4.09,1.64 1.38,-1.11 19.6,-15.22 39.18,-4.61l0.01 0.01c0.02,0.01 6.94,4.21 9.33,6.39 0.21,0.13 2.06,1.11 4.35,-1.61 0.51,-0.61 0.83,-1.2 1.01,-1.75 0.18,-0.54 0.21,-1.04 0.17,-1.5l0.51 -0.25c8.34,7.99 12.74,18.67 13.09,29.47 0.35,10.79 -3.34,21.71 -11.17,30.24zm-2.15 1.43l1.69 -1.85c7.72,-8.41 11.35,-19.17 11.01,-29.8 -0.34,-10.43 -4.5,-20.73 -12.38,-28.55 -0.03,0.32 -0.09,0.65 -0.2,0.99 -0.2,0.62 -0.56,1.27 -1.13,1.95 -2.78,3.3 -5.16,1.72 -5.17,1.72l-0.04 -0.03c-2.29,-2.1 -9.02,-6.19 -9.25,-6.34 -19.97,-10.81 -38.53,4.58 -38.58,4.62l-0.19 0.07c-2.36,-0.02 -3.81,-0.8 -4.67,-1.87 -0.7,-0.87 -1,-1.94 -1.1,-2.95 -0.21,0.21 -0.42,0.41 -0.63,0.62 -0.29,0.29 -0.58,0.58 -0.86,0.88l2.95 2.7c0.43,0.4 0.66,0.93 0.69,1.48l-0 0c0.02,0.55 -0.16,1.1 -0.55,1.53l-0.08 0.09c-0.4,0.43 -0.93,0.66 -1.48,0.69l-0 0c-0.55,0.02 -1.1,-0.16 -1.53,-0.56l-2.94 -2.7 -1.16 1.27 2.94 2.7c0.43,0.4 0.66,0.94 0.69,1.48l0 0c0.02,0.55 -0.16,1.1 -0.56,1.53l-0.08 0.08c-0.39,0.43 -0.93,0.66 -1.48,0.69l0 0c-0.55,0.02 -1.1,-0.16 -1.53,-0.56l-2.95 -2.7 -1.24 1.35 2.95 2.7c0.43,0.39 0.66,0.93 0.69,1.48 0.02,0.55 -0.16,1.1 -0.56,1.53l-0.08 0.09c-0.39,0.43 -0.93,0.66 -1.48,0.69l0 0c-0.55,0.02 -1.1,-0.16 -1.53,-0.56l-2.95 -2.7 -1.34 1.46 2.95 2.7c0.43,0.4 0.66,0.94 0.69,1.48l0 0c0.02,0.55 -0.16,1.1 -0.56,1.53l-0.08 0.08c-0.39,0.43 -0.93,0.66 -1.48,0.69l0 0c-0.55,0.02 -1.1,-0.16 -1.53,-0.55l-2.95 -2.7 -1.24 1.35 2.95 2.7c0.43,0.4 0.66,0.94 0.69,1.48l0 0c0.02,0.55 -0.16,1.1 -0.56,1.53l-0.08 0.08c-0.39,0.43 -0.93,0.66 -1.48,0.69l0 0c-0.55,0.02 -1.1,-0.16 -1.53,-0.56l-2.95 -2.7 -5.38 5.86c-1.47,1.6 -2.15,3.65 -2.06,5.68 0.09,2.03 0.94,4.02 2.54,5.49l26.7 24.51c8.53,7.83 19.48,11.45 30.26,10.99 10.78,-0.46 21.39,-5.01 29.21,-13.54z"/>
      <path class="fil0" d="M1137.28 83.58l-1.69 1.85c-3.94,4.3 -8.58,7.61 -13.58,9.93 -5.19,2.41 -10.79,3.74 -16.44,3.98 -5.64,0.24 -11.33,-0.61 -16.72,-2.56 -5.18,-1.88 -10.08,-4.79 -14.38,-8.73l-26.7 -24.51c-0.9,-0.83 -1.59,-1.8 -2.08,-2.84 -0.5,-1.09 -0.78,-2.26 -0.83,-3.44 -0.05,-1.18 0.12,-2.37 0.53,-3.5 0.4,-1.09 1.01,-2.11 1.83,-3.01l6.16 -6.71 3.79 3.48c0.1,0.09 0.21,0.16 0.32,0.2 0.12,0.04 0.25,0.06 0.38,0.05 0.12,-0 0.25,-0.04 0.37,-0.09 0.11,-0.05 0.21,-0.13 0.3,-0.22l0.07 -0.08c0.09,-0.1 0.16,-0.21 0.2,-0.33 0.05,-0.12 0.07,-0.25 0.06,-0.38 -0,-0.12 -0.04,-0.25 -0.09,-0.37 -0.05,-0.11 -0.13,-0.22 -0.22,-0.3l-3.79 -3.48 2.8 -3.05 3.79 3.48c0.1,0.09 0.21,0.16 0.32,0.2 0.12,0.04 0.25,0.06 0.38,0.06 0.13,-0 0.26,-0.04 0.37,-0.09 0.11,-0.05 0.22,-0.12 0.3,-0.22l0.08 -0.08c0.09,-0.1 0.16,-0.21 0.2,-0.32 0.04,-0.12 0.06,-0.25 0.05,-0.38 -0,-0.12 -0.04,-0.25 -0.09,-0.37 -0.05,-0.11 -0.13,-0.22 -0.22,-0.3l-3.79 -3.48 2.9 -3.16 3.79 3.48c0.1,0.09 0.21,0.16 0.32,0.19 0.12,0.05 0.25,0.07 0.38,0.06 0.13,-0 0.26,-0.04 0.37,-0.09 0.11,-0.05 0.22,-0.13 0.3,-0.22l0.08 -0.09c0.09,-0.09 0.16,-0.21 0.19,-0.32 0.05,-0.12 0.07,-0.25 0.06,-0.38 -0,-0.13 -0.04,-0.26 -0.09,-0.37 -0.05,-0.11 -0.13,-0.22 -0.22,-0.3l-3.79 -3.48 2.8 -3.05 3.79 3.48c0.1,0.09 0.21,0.16 0.32,0.2 0.12,0.04 0.25,0.06 0.38,0.05 0.13,-0 0.26,-0.04 0.37,-0.09 0.11,-0.05 0.22,-0.13 0.3,-0.22l0.08 -0.08c0.09,-0.1 0.16,-0.21 0.2,-0.33 0.04,-0.12 0.06,-0.25 0.06,-0.38 -0.01,-0.12 -0.04,-0.25 -0.09,-0.37 -0.05,-0.11 -0.13,-0.22 -0.22,-0.3l-3.79 -3.48 2.73 -2.97 3.79 3.48c0.1,0.09 0.21,0.16 0.32,0.2 0.12,0.04 0.25,0.06 0.38,0.05 0.12,-0 0.25,-0.04 0.37,-0.09 0.11,-0.05 0.22,-0.13 0.31,-0.22l0.08 -0.09c0.09,-0.1 0.15,-0.21 0.19,-0.32 0.04,-0.12 0.06,-0.25 0.06,-0.38 -0,-0.12 -0.04,-0.25 -0.09,-0.37 -0.05,-0.11 -0.12,-0.22 -0.22,-0.3l-3.8 -3.48 1.12 -1.2 0.55 -0.56 0.57 -0.56 1.95 -1.83 0.04 1.9c0.01,0.55 0.08,1.13 0.25,1.68 0.14,0.44 0.34,0.86 0.64,1.24 0.34,0.42 0.81,0.78 1.44,1.04 0.55,0.22 1.22,0.37 2.05,0.4 1.11,-0.86 5.92,-4.43 12.78,-6.67 7.29,-2.38 16.89,-3.27 26.84,2.12l0.04 0.02c0.01,0.01 3.11,1.89 5.88,3.78 1.38,0.94 2.68,1.89 3.5,2.64 0.18,0.09 0.78,0.34 1.64,0.02 0.57,-0.21 1.24,-0.66 1.98,-1.54 0.23,-0.28 0.42,-0.55 0.58,-0.81 0.15,-0.26 0.26,-0.51 0.34,-0.75 0.07,-0.23 0.12,-0.46 0.14,-0.67 0.02,-0.21 0.02,-0.42 0,-0.61l-0.04 -0.37 1.19 -0.58 0.27 0.26c4.14,3.97 7.33,8.6 9.54,13.58 2.29,5.16 3.54,10.7 3.71,16.27 0.18,5.57 -0.7,11.17 -2.66,16.47 -1.89,5.1 -4.76,9.92 -8.65,14.15zm-2.94 0.7l1.69 -1.85c3.73,-4.07 6.5,-8.7 8.31,-13.59 1.88,-5.09 2.73,-10.48 2.56,-15.83 -0.17,-5.24 -1.31,-10.45 -3.42,-15.31 -1.91,-4.4 -4.61,-8.52 -8.09,-12.14l-0.02 0.05c-0.11,0.34 -0.26,0.7 -0.47,1.06 -0.2,0.35 -0.46,0.71 -0.76,1.08 -3.08,3.65 -5.83,1.85 -5.87,1.82l-0.12 -0.09c-0.76,-0.69 -2.02,-1.62 -3.37,-2.55 -2.65,-1.81 -5.62,-3.62 -5.79,-3.72 -19.57,-10.58 -37.78,4.43 -37.96,4.58l-0 -0.01 -0.16 0.1 -0.19 0.07 -0.18 0.03c-1.18,-0.01 -2.16,-0.21 -2.96,-0.53l-0.35 -0.15c0.14,0.31 0.21,0.64 0.23,0.97 0.02,0.35 -0.04,0.7 -0.16,1.03 -0.11,0.32 -0.3,0.62 -0.54,0.89l-0.08 0.09c-0.25,0.26 -0.53,0.47 -0.84,0.62 -0.32,0.14 -0.67,0.23 -1.02,0.24l-0.02 0c-0.34,0.01 -0.69,-0.04 -1.01,-0.16 -0.32,-0.12 -0.62,-0.3 -0.89,-0.54l-2.55 -2.33 -0.43 0.47 2.54 2.34c0.26,0.24 0.47,0.53 0.62,0.84 0.15,0.32 0.23,0.66 0.25,1.01l0.01 0.24 -0.01 0.01c-0.01,0.26 -0.06,0.53 -0.16,0.78 -0.12,0.32 -0.3,0.63 -0.54,0.89l-0.07 0.08c-0.25,0.26 -0.53,0.47 -0.84,0.62 -0.32,0.14 -0.66,0.23 -1.01,0.25l-0.02 0c-0.34,0.01 -0.68,-0.04 -1.01,-0.16 -0.32,-0.12 -0.62,-0.3 -0.89,-0.54l-2.54 -2.34 -0.51 0.56 2.54 2.33c0.26,0.25 0.47,0.53 0.62,0.84 0.15,0.32 0.23,0.67 0.25,1.01 0.01,0.35 -0.04,0.7 -0.16,1.03 -0.12,0.32 -0.3,0.62 -0.54,0.89l-0.08 0.09c-0.24,0.26 -0.53,0.47 -0.84,0.61 -0.32,0.15 -0.67,0.23 -1.01,0.25l-0.02 0c-0.34,0.01 -0.68,-0.04 -1.01,-0.16 -0.32,-0.12 -0.62,-0.3 -0.89,-0.54l-2.54 -2.33 -0.61 0.66 2.54 2.34c0.27,0.25 0.47,0.53 0.62,0.84 0.1,0.22 0.17,0.45 0.21,0.69l0.02 0.01 0.02 0.32c0.01,0.35 -0.04,0.7 -0.16,1.03 -0.12,0.32 -0.3,0.63 -0.54,0.89l-0.07 0.08c-0.25,0.27 -0.53,0.47 -0.84,0.62 -0.32,0.15 -0.67,0.23 -1.02,0.25l-0.24 0.01 -0.01 -0.01c-0.26,-0.02 -0.53,-0.07 -0.78,-0.16 -0.32,-0.12 -0.62,-0.3 -0.89,-0.54l-2.54 -2.34 -0.51 0.56 2.54 2.34c0.26,0.25 0.47,0.53 0.62,0.84 0.15,0.32 0.23,0.67 0.25,1.02l0.01 0.24 -0.01 0.01c-0.01,0.26 -0.07,0.53 -0.16,0.78 -0.12,0.32 -0.3,0.62 -0.54,0.89l-0.07 0.09c-0.25,0.26 -0.53,0.47 -0.84,0.62 -0.32,0.15 -0.67,0.23 -1.01,0.25l-0.02 0c-0.34,0.01 -0.68,-0.04 -1.01,-0.16 -0.32,-0.12 -0.63,-0.3 -0.89,-0.54l-2.54 -2.33 -5.02 5.47c-0.67,0.73 -1.16,1.56 -1.48,2.44 -0.33,0.92 -0.48,1.89 -0.44,2.84 0.04,0.96 0.27,1.92 0.68,2.8 0.39,0.85 0.96,1.64 1.69,2.31l26.7 24.51c4.13,3.79 8.83,6.58 13.81,8.39 5.17,1.88 10.64,2.7 16.07,2.46 5.42,-0.23 10.8,-1.51 15.8,-3.83 4.8,-2.23 9.25,-5.41 13.04,-9.54zm-59.64 -59.57l-0.16 -0.4c-0.07,-0.19 -0.12,-0.39 -0.18,-0.59l-0.35 0.36 0.68 0.63z"/>
      <path class="fil0" d="M1107.26 98.55l-1.63 3.18c-4.85,0.84 -9.71,1.69 -14.56,2.54 -5.34,-4.53 -10.68,-9.07 -16.02,-13.6l0.08 -0.21c0,-0 0.49,-1.2 1.01,-2.03l0.19 -0.3 0.27 0.23c4.28,3.61 9.11,6.22 14.17,7.85 5.25,1.68 10.76,2.31 16.2,1.89l0.55 -0.04 -0.25 0.49zm-2.03 2.63l1.24 -2.42c-5.34,0.34 -10.74,-0.31 -15.89,-1.96 -5.03,-1.61 -9.83,-4.19 -14.1,-7.73 -0.3,0.53 -0.56,1.12 -0.69,1.43l15.46 13.13 13.99 -2.44z"/>
      <path class="fil0" d="M1107.74 98.79l-1.75 3.42c-5.03,0.86 -10.06,1.74 -15.08,2.63 -5.49,-4.68 -11,-9.35 -16.51,-14.01l0.23 -0.57c0.05,-0.12 0.26,-0.64 0.53,-1.17 0.15,-0.31 0.33,-0.65 0.52,-0.94l0.51 -0.82 0.75 0.63c2.08,1.76 4.31,3.28 6.62,4.56 2.36,1.31 4.83,2.37 7.38,3.19 2.58,0.83 5.22,1.39 7.89,1.71 2.69,0.31 5.41,0.37 8.1,0.16l1.51 -0.12 -0.69 1.35zm-2.87 1.89l0.69 -1.35c-2.4,0.11 -4.82,0.01 -7.21,-0.29 -2.68,-0.33 -5.34,-0.91 -7.94,-1.75 -2.58,-0.83 -5.1,-1.9 -7.52,-3.23 -2.17,-1.19 -4.26,-2.58 -6.25,-4.18l-0.21 0.44 14.96 12.7 13.47 -2.35z"/>
      <path class="fil0" d="M1076.31 29.82l-0.08 0.09c-0.4,0.43 -0.93,0.66 -1.48,0.69l-0 0c-0.55,0.02 -1.1,-0.16 -1.53,-0.56l-3.4 -3.12c-0.43,-0.4 -0.66,-0.94 -0.68,-1.48 -0.02,-0.55 0.16,-1.1 0.55,-1.54l0.08 -0.08c0.4,-0.43 0.94,-0.66 1.48,-0.69 0.55,-0.02 1.1,0.16 1.53,0.56l3.4 3.12c0.43,0.4 0.66,0.93 0.69,1.48l-0 0c0.02,0.55 -0.16,1.1 -0.55,1.53zm-0.53 -0.33l0.08 -0.09c0.28,-0.31 0.41,-0.7 0.4,-1.09 -0.02,-0.39 -0.18,-0.77 -0.49,-1.05l-3.4 -3.12c-0.3,-0.28 -0.7,-0.41 -1.09,-0.4 -0.39,0.02 -0.77,0.18 -1.05,0.49l-0.08 0.09c-0.28,0.31 -0.41,0.7 -0.39,1.09 0.02,0.39 0.18,0.77 0.49,1.05l3.4 3.12c0.31,0.28 0.7,0.41 1.09,0.4 0.39,-0.02 0.77,-0.18 1.05,-0.49z"/>
      <path class="fil0" d="M1076.71 30.19l-0.08 0.09c-0.25,0.26 -0.53,0.47 -0.84,0.62 -0.32,0.14 -0.67,0.23 -1.02,0.24l-0.02 0c-0.34,0.01 -0.69,-0.04 -1.01,-0.16 -0.32,-0.12 -0.62,-0.3 -0.89,-0.54l-3.41 -3.12c-0.26,-0.25 -0.47,-0.53 -0.61,-0.84 -0.15,-0.32 -0.23,-0.67 -0.25,-1.01 -0.02,-0.35 0.04,-0.7 0.16,-1.03 0.12,-0.32 0.3,-0.63 0.54,-0.89l0.08 -0.08c0.25,-0.26 0.53,-0.47 0.84,-0.62 0.32,-0.15 0.67,-0.23 1.02,-0.25 0.35,-0.01 0.7,0.04 1.03,0.16 0.32,0.12 0.62,0.3 0.89,0.54l3.41 3.12c0.26,0.25 0.47,0.53 0.61,0.84 0.15,0.32 0.23,0.67 0.25,1.02 0.02,0.35 -0.04,0.7 -0.16,1.03 -0.11,0.32 -0.3,0.62 -0.54,0.89zm-1.32 -1.06l0.08 -0.09c0.09,-0.1 0.15,-0.21 0.19,-0.32 0.04,-0.12 0.06,-0.25 0.06,-0.38 -0,-0.12 -0.04,-0.25 -0.09,-0.37 -0.05,-0.11 -0.12,-0.22 -0.22,-0.3l-3.41 -3.12c-0.1,-0.09 -0.21,-0.16 -0.32,-0.19 -0.12,-0.05 -0.25,-0.07 -0.38,-0.06 -0.12,0 -0.25,0.04 -0.37,0.09 -0.11,0.05 -0.21,0.13 -0.3,0.22l-0.08 0.09c-0.09,0.1 -0.15,0.21 -0.19,0.32 -0.04,0.12 -0.06,0.25 -0.06,0.38 0.01,0.13 0.04,0.25 0.09,0.37 0.05,0.11 0.12,0.21 0.22,0.3l3.4 3.12c0.1,0.09 0.21,0.16 0.32,0.2 0.12,0.04 0.25,0.06 0.38,0.05 0.12,-0 0.25,-0.04 0.37,-0.09 0.11,-0.05 0.22,-0.13 0.31,-0.22z"/>
      <path class="fil0" d="M1072.19 34.32l-0.08 0.08c-0.39,0.43 -0.93,0.66 -1.48,0.69l0 0c-0.55,0.02 -1.1,-0.16 -1.53,-0.56l-3.4 -3.12c-0.43,-0.4 -0.66,-0.93 -0.69,-1.48 -0.02,-0.55 0.16,-1.1 0.56,-1.53l0.08 -0.09c0.4,-0.43 0.93,-0.66 1.48,-0.69 0.55,-0.02 1.1,0.16 1.53,0.56l3.4 3.12c0.43,0.4 0.66,0.94 0.69,1.48l0 0c0.02,0.55 -0.16,1.1 -0.56,1.53zm-0.53 -0.33l0.07 -0.09c0.28,-0.31 0.41,-0.7 0.4,-1.09 -0.02,-0.39 -0.18,-0.77 -0.49,-1.05l-3.4 -3.12c-0.31,-0.28 -0.7,-0.41 -1.09,-0.4 -0.39,0.02 -0.77,0.18 -1.05,0.49l-0.08 0.09c-0.28,0.31 -0.41,0.7 -0.4,1.09 0.02,0.39 0.18,0.77 0.49,1.05l3.4 3.12c0.31,0.28 0.71,0.41 1.09,0.4 0.39,-0.02 0.77,-0.18 1.06,-0.49z"/>
      <path class="fil0" d="M1072.59 34.68l-0.07 0.08c-0.25,0.26 -0.53,0.47 -0.84,0.62 -0.32,0.14 -0.66,0.23 -1.01,0.25l-0.02 0c-0.34,0.01 -0.68,-0.04 -1.01,-0.16 -0.32,-0.12 -0.62,-0.3 -0.89,-0.54l-3.4 -3.12c-0.26,-0.25 -0.47,-0.53 -0.61,-0.84 -0.15,-0.32 -0.23,-0.67 -0.25,-1.01 -0.01,-0.35 0.04,-0.7 0.16,-1.03 0.12,-0.32 0.3,-0.63 0.54,-0.89l0.07 -0.08c0.25,-0.26 0.53,-0.47 0.84,-0.62 0.32,-0.15 0.67,-0.23 1.02,-0.25 0.35,-0.01 0.7,0.04 1.03,0.16 0.32,0.12 0.63,0.3 0.89,0.54l3.4 3.12c0.26,0.24 0.47,0.53 0.62,0.84 0.15,0.32 0.23,0.66 0.25,1.01l0.01 0.24 -0.01 0.01c-0.01,0.26 -0.06,0.53 -0.16,0.78 -0.12,0.32 -0.3,0.63 -0.54,0.89zm-1.32 -1.06l0.08 -0.08c0.09,-0.1 0.16,-0.21 0.2,-0.33 0.04,-0.12 0.06,-0.25 0.06,-0.38 -0.01,-0.12 -0.04,-0.25 -0.09,-0.37 -0.05,-0.11 -0.13,-0.22 -0.22,-0.3l-3.4 -3.12c-0.1,-0.09 -0.21,-0.16 -0.32,-0.19 -0.12,-0.05 -0.25,-0.07 -0.38,-0.06 -0.12,0 -0.25,0.04 -0.37,0.09 -0.12,0.05 -0.22,0.13 -0.31,0.22l-0.08 0.09c-0.09,0.1 -0.16,0.21 -0.19,0.32 -0.05,0.12 -0.06,0.25 -0.06,0.38 0,0.13 0.04,0.25 0.09,0.37 0.05,0.11 0.13,0.21 0.23,0.3l3.4 3.12c0.1,0.09 0.21,0.16 0.32,0.2 0.12,0.04 0.25,0.06 0.38,0.05 0.13,-0 0.26,-0.04 0.37,-0.09 0.11,-0.05 0.22,-0.13 0.3,-0.22z"/>
      <path class="fil0" d="M1067.99 38.89l-0.08 0.09c-0.39,0.43 -0.93,0.66 -1.48,0.69l0 0c-0.55,0.02 -1.1,-0.16 -1.53,-0.56l-3.4 -3.12c-0.43,-0.4 -0.66,-0.94 -0.69,-1.48 -0.02,-0.55 0.16,-1.1 0.56,-1.53l0.08 -0.08c0.39,-0.43 0.93,-0.66 1.48,-0.69l0 0c0.55,-0.02 1.1,0.16 1.53,0.56l3.4 3.12c0.43,0.39 0.66,0.93 0.69,1.48 0.02,0.55 -0.16,1.1 -0.56,1.53zm-0.53 -0.33l0.08 -0.08c0.28,-0.31 0.41,-0.7 0.4,-1.09 -0.02,-0.39 -0.18,-0.77 -0.49,-1.05l-3.4 -3.12c-0.31,-0.28 -0.71,-0.41 -1.09,-0.39l0 0c-0.39,0.02 -0.77,0.18 -1.06,0.49l-0.07 0.09c-0.28,0.3 -0.41,0.7 -0.4,1.09 0.02,0.39 0.18,0.77 0.49,1.05l3.4 3.12c0.31,0.28 0.71,0.41 1.09,0.4 0.39,-0.02 0.77,-0.18 1.05,-0.49z"/>
      <path class="fil0" d="M1068.39 39.26l-0.08 0.09c-0.24,0.26 -0.53,0.47 -0.84,0.61 -0.32,0.15 -0.67,0.23 -1.01,0.25l-0.02 0c-0.34,0.01 -0.68,-0.04 -1.01,-0.16 -0.32,-0.12 -0.62,-0.3 -0.89,-0.54l-3.4 -3.12c-0.26,-0.24 -0.47,-0.53 -0.62,-0.84 -0.15,-0.32 -0.23,-0.66 -0.25,-1.01 -0.01,-0.35 0.04,-0.7 0.16,-1.03 0.12,-0.32 0.3,-0.62 0.54,-0.89l0.07 -0.09c0.25,-0.26 0.53,-0.47 0.84,-0.62 0.32,-0.15 0.67,-0.23 1.01,-0.25l0.02 0c0.34,-0.01 0.68,0.04 1.01,0.16 0.32,0.12 0.62,0.3 0.89,0.54l3.4 3.12c0.26,0.25 0.47,0.53 0.62,0.84 0.15,0.32 0.23,0.67 0.25,1.01 0.01,0.35 -0.04,0.7 -0.16,1.03 -0.12,0.32 -0.3,0.62 -0.54,0.89zm-1.32 -1.06l0.08 -0.09c0.09,-0.09 0.16,-0.21 0.19,-0.32 0.05,-0.12 0.07,-0.25 0.06,-0.38 -0,-0.13 -0.04,-0.26 -0.09,-0.37 -0.05,-0.11 -0.13,-0.22 -0.22,-0.3l-3.4 -3.12c-0.1,-0.09 -0.21,-0.16 -0.32,-0.2 -0.12,-0.04 -0.25,-0.06 -0.38,-0.06 -0.12,0.01 -0.25,0.04 -0.37,0.09 -0.12,0.05 -0.22,0.12 -0.31,0.22l-0.08 0.09c-0.09,0.1 -0.16,0.21 -0.19,0.32 -0.05,0.12 -0.07,0.25 -0.06,0.38 0,0.12 0.04,0.25 0.09,0.37 0.05,0.12 0.13,0.22 0.22,0.31l3.4 3.12c0.1,0.09 0.21,0.16 0.32,0.19 0.12,0.05 0.25,0.07 0.38,0.06 0.13,-0 0.26,-0.04 0.37,-0.09 0.11,-0.05 0.22,-0.13 0.3,-0.22z"/>
      <path class="fil0" d="M1063.69 43.57l-0.08 0.08c-0.39,0.43 -0.93,0.66 -1.48,0.69l0 0c-0.55,0.02 -1.1,-0.16 -1.53,-0.55l-3.4 -3.12c-0.43,-0.39 -0.66,-0.93 -0.69,-1.48l0 0c-0.02,-0.55 0.16,-1.1 0.56,-1.53l0.08 -0.09c0.39,-0.43 0.93,-0.66 1.48,-0.69 0.55,-0.02 1.1,0.16 1.53,0.56l3.4 3.12c0.43,0.4 0.66,0.94 0.69,1.48l0 0c0.02,0.55 -0.16,1.1 -0.56,1.53zm-0.53 -0.33l0.07 -0.08c0.28,-0.31 0.41,-0.71 0.4,-1.09 -0.02,-0.39 -0.18,-0.77 -0.49,-1.06l-3.4 -3.12c-0.31,-0.28 -0.7,-0.41 -1.09,-0.4 -0.39,0.02 -0.77,0.18 -1.05,0.49l-0.08 0.08c-0.28,0.31 -0.41,0.7 -0.4,1.09 0.02,0.39 0.18,0.77 0.49,1.05l3.4 3.12c0.31,0.28 0.71,0.41 1.09,0.4 0.39,-0.02 0.77,-0.18 1.06,-0.49z"/>
      <path class="fil0" d="M1064.09 43.94l-0.07 0.08c-0.25,0.27 -0.53,0.47 -0.84,0.62 -0.32,0.15 -0.67,0.23 -1.02,0.25l-0.24 0.01 -0.01 -0.01c-0.26,-0.02 -0.53,-0.07 -0.78,-0.16 -0.32,-0.12 -0.62,-0.3 -0.89,-0.54l-3.4 -3.12c-0.26,-0.25 -0.47,-0.53 -0.62,-0.84 -0.14,-0.32 -0.23,-0.67 -0.24,-1.01 -0.02,-0.35 0.04,-0.7 0.16,-1.03 0.12,-0.32 0.3,-0.62 0.54,-0.89l0.07 -0.09c0.25,-0.26 0.53,-0.47 0.84,-0.61 0.32,-0.15 0.67,-0.23 1.01,-0.25 0.35,-0.02 0.7,0.04 1.03,0.16 0.32,0.12 0.63,0.3 0.89,0.54l3.4 3.12c0.27,0.25 0.47,0.53 0.62,0.84 0.1,0.22 0.17,0.45 0.21,0.69l0.02 0.01 0.02 0.32c0.01,0.35 -0.04,0.7 -0.16,1.03 -0.12,0.32 -0.3,0.63 -0.54,0.89zm-1.32 -1.06l0.08 -0.08c0.09,-0.1 0.16,-0.21 0.2,-0.32 0.04,-0.12 0.06,-0.25 0.05,-0.38 -0,-0.12 -0.04,-0.25 -0.09,-0.37 -0.05,-0.11 -0.13,-0.22 -0.22,-0.3l-3.4 -3.12c-0.1,-0.09 -0.21,-0.15 -0.32,-0.19 -0.12,-0.04 -0.25,-0.06 -0.38,-0.06 -0.13,0 -0.26,0.04 -0.37,0.09 -0.11,0.05 -0.21,0.13 -0.3,0.23l-0.08 0.08c-0.09,0.1 -0.16,0.21 -0.19,0.32 -0.05,0.12 -0.07,0.25 -0.06,0.38 0,0.13 0.04,0.26 0.09,0.37 0.05,0.11 0.13,0.21 0.22,0.3l3.4 3.12c0.1,0.09 0.21,0.16 0.32,0.2 0.12,0.04 0.25,0.06 0.38,0.06 0.13,-0 0.26,-0.04 0.37,-0.09 0.11,-0.05 0.22,-0.12 0.3,-0.22z"/>
      <path class="fil0" d="M1059.49 48.15l-0.08 0.08c-0.39,0.43 -0.93,0.66 -1.48,0.69l0 0c-0.55,0.02 -1.1,-0.16 -1.53,-0.56l-3.4 -3.12c-0.43,-0.39 -0.66,-0.93 -0.69,-1.48l0 -0c-0.02,-0.55 0.16,-1.1 0.56,-1.53l0.08 -0.09c0.39,-0.43 0.93,-0.66 1.48,-0.69l0 0c0.55,-0.02 1.1,0.16 1.53,0.56l3.4 3.12c0.43,0.4 0.66,0.93 0.69,1.48l0 0c0.02,0.55 -0.16,1.1 -0.56,1.53zm-0.53 -0.33l0.08 -0.09c0.28,-0.31 0.41,-0.7 0.4,-1.09l0 0c-0.02,-0.39 -0.18,-0.77 -0.49,-1.05l-3.4 -3.12c-0.31,-0.28 -0.71,-0.41 -1.09,-0.4l-0 0c-0.39,0.02 -0.77,0.18 -1.05,0.49l-0.07 0.09c-0.28,0.31 -0.42,0.7 -0.4,1.09l0 0c0.02,0.39 0.18,0.77 0.49,1.05l3.4 3.12c0.31,0.28 0.7,0.41 1.09,0.4l0 0c0.39,-0.02 0.77,-0.18 1.05,-0.49z"/>
      <path class="fil0" d="M1059.89 48.52l-0.07 0.08c-0.25,0.26 -0.53,0.47 -0.84,0.62 -0.32,0.14 -0.66,0.23 -1.01,0.25l-0.02 0c-0.34,0.01 -0.68,-0.04 -1.01,-0.16 -0.32,-0.12 -0.63,-0.3 -0.89,-0.54l-3.4 -3.12c-0.26,-0.24 -0.47,-0.53 -0.62,-0.84 -0.15,-0.32 -0.23,-0.67 -0.25,-1.01l0 -0.02c-0.01,-0.34 0.04,-0.69 0.16,-1.01 0.12,-0.32 0.3,-0.63 0.54,-0.89l0.07 -0.08c0.25,-0.26 0.53,-0.47 0.84,-0.62 0.32,-0.14 0.66,-0.23 1.01,-0.24l0.02 -0c0.34,-0.01 0.68,0.04 1.01,0.16 0.32,0.12 0.62,0.3 0.89,0.54l3.4 3.12c0.26,0.24 0.47,0.53 0.61,0.84 0.15,0.32 0.23,0.67 0.25,1.01 0.02,0.35 -0.04,0.7 -0.16,1.03 -0.12,0.32 -0.3,0.63 -0.54,0.89zm-1.32 -1.06l0.08 -0.09c0.09,-0.09 0.16,-0.21 0.19,-0.32 0.05,-0.12 0.07,-0.25 0.06,-0.38l0 -0.02c-0.01,-0.12 -0.04,-0.24 -0.09,-0.35 -0.05,-0.11 -0.12,-0.21 -0.22,-0.3l-3.4 -3.12c-0.1,-0.09 -0.21,-0.16 -0.32,-0.2 -0.12,-0.04 -0.25,-0.06 -0.38,-0.05l-0.02 0c-0.12,0.01 -0.24,0.04 -0.35,0.09 -0.11,0.05 -0.22,0.13 -0.3,0.22l-0.08 0.09c-0.09,0.09 -0.16,0.21 -0.2,0.32 -0.04,0.12 -0.06,0.25 -0.06,0.37 0.01,0.13 0.04,0.26 0.09,0.37 0.05,0.12 0.13,0.22 0.22,0.31l3.4 3.12c0.09,0.09 0.21,0.16 0.32,0.2 0.12,0.04 0.25,0.06 0.38,0.05l0.02 0c0.12,-0.01 0.24,-0.04 0.35,-0.09 0.12,-0.05 0.22,-0.13 0.31,-0.22z"/>
      <path class="fil0" d="M1064.09 63.4c-1.26,1.38 -2.96,2.11 -4.7,2.19 -1.73,0.07 -3.49,-0.51 -4.87,-1.78 -1.38,-1.26 -2.11,-2.96 -2.19,-4.69 -0.07,-1.73 0.51,-3.49 1.78,-4.87 1.27,-1.38 2.97,-2.11 4.7,-2.19 1.73,-0.07 3.49,0.51 4.87,1.78 1.38,1.26 2.11,2.96 2.19,4.69 0.07,1.73 -0.51,3.49 -1.78,4.87zm-4.72 1.57c1.57,-0.07 3.12,-0.74 4.27,-1.99 1.15,-1.25 1.68,-2.85 1.62,-4.43 -0.07,-1.57 -0.74,-3.12 -1.99,-4.27 -1.25,-1.15 -2.86,-1.68 -4.43,-1.61 -1.57,0.07 -3.12,0.74 -4.27,1.99 -1.15,1.25 -1.68,2.85 -1.61,4.43 0.07,1.57 0.73,3.12 1.99,4.27 1.25,1.15 2.85,1.68 4.43,1.62z"/>
      <path class="fil0" d="M1064.49 63.76c-0.67,0.73 -1.45,1.29 -2.29,1.69 -0.88,0.41 -1.82,0.63 -2.78,0.67 -0.95,0.04 -1.91,-0.11 -2.82,-0.44 -0.88,-0.32 -1.71,-0.81 -2.44,-1.48 -0.73,-0.67 -1.29,-1.46 -1.68,-2.3 -0.41,-0.88 -0.64,-1.82 -0.67,-2.78 -0.04,-0.95 0.1,-1.91 0.44,-2.82 0.32,-0.88 0.81,-1.71 1.48,-2.44 0.67,-0.73 1.45,-1.29 2.3,-1.69 0.87,-0.41 1.82,-0.64 2.77,-0.67 0.95,-0.04 1.91,0.11 2.82,0.44 0.88,0.32 1.71,0.81 2.44,1.48 0.73,0.67 1.29,1.46 1.69,2.3 0.41,0.88 0.63,1.82 0.67,2.78 0.04,0.95 -0.11,1.91 -0.44,2.82 -0.32,0.88 -0.81,1.71 -1.48,2.44zm-5.14 0.67c0.73,-0.03 1.45,-0.21 2.13,-0.52 0.65,-0.3 1.25,-0.74 1.76,-1.29 0.51,-0.56 0.89,-1.2 1.14,-1.87 0.25,-0.7 0.37,-1.44 0.34,-2.17 -0.03,-0.73 -0.21,-1.46 -0.52,-2.13 -0.3,-0.65 -0.74,-1.25 -1.3,-1.76 -0.56,-0.51 -1.2,-0.9 -1.87,-1.14 -0.7,-0.25 -1.44,-0.37 -2.17,-0.33 -0.73,0.03 -1.46,0.2 -2.13,0.52 -0.65,0.3 -1.25,0.73 -1.77,1.29 -0.51,0.56 -0.89,1.2 -1.14,1.87 -0.25,0.7 -0.37,1.44 -0.34,2.17 0.03,0.73 0.21,1.46 0.52,2.13 0.3,0.65 0.73,1.25 1.29,1.76 0.56,0.51 1.2,0.9 1.87,1.14 0.7,0.26 1.44,0.37 2.17,0.34z"/>
      <path class="fil0" d="M1126.58 75.73c-5.84,6.36 -13.71,9.76 -21.7,10.1 -8,0.34 -16.13,-2.36 -22.49,-8.21 -6.37,-5.84 -9.76,-13.71 -10.1,-21.71 -0.34,-8 2.37,-16.13 8.21,-22.49 5.84,-6.36 13.71,-9.76 21.7,-10.1 8,-0.34 16.13,2.36 22.49,8.21 6.37,5.84 9.76,13.71 10.1,21.71 0.34,8 -2.37,16.13 -8.21,22.49zm-21.73 9.49c7.84,-0.34 15.55,-3.66 21.28,-9.9 5.73,-6.24 8.38,-14.21 8.05,-22.05 -0.34,-7.84 -3.67,-15.55 -9.9,-21.28 -6.24,-5.73 -14.21,-8.38 -22.05,-8.05 -7.84,0.34 -15.55,3.66 -21.28,9.9 -5.73,6.24 -8.38,14.21 -8.05,22.05 0.34,7.84 3.67,15.56 9.9,21.28 6.24,5.73 14.21,8.38 22.05,8.05z"/>
      <path class="fil0" d="M1126.98 76.1c-2.92,3.18 -6.33,5.62 -10,7.34 -3.82,1.78 -7.93,2.76 -12.08,2.94 -4.14,0.18 -8.32,-0.45 -12.28,-1.9 -3.81,-1.39 -7.43,-3.54 -10.6,-6.45 -3.18,-2.91 -5.63,-6.33 -7.34,-10 -1.78,-3.82 -2.76,-7.93 -2.94,-12.08 -0.18,-4.14 0.45,-8.32 1.9,-12.28 1.39,-3.81 3.54,-7.42 6.46,-10.6 2.91,-3.18 6.32,-5.63 10,-7.34 3.82,-1.78 7.93,-2.76 12.08,-2.94 4.14,-0.18 8.32,0.45 12.28,1.89 3.81,1.39 7.43,3.54 10.6,6.46 3.18,2.91 5.63,6.33 7.34,10 1.78,3.82 2.76,7.93 2.94,12.08 0.18,4.14 -0.45,8.32 -1.9,12.28 -1.39,3.81 -3.54,7.42 -6.45,10.6zm-22.16 8.58c3.92,-0.17 7.82,-1.1 11.43,-2.78 3.48,-1.62 6.71,-3.94 9.47,-6.95 2.76,-3.01 4.8,-6.42 6.11,-10.03 1.37,-3.75 1.96,-7.71 1.8,-11.63 -0.17,-3.92 -1.1,-7.82 -2.78,-11.43 -1.62,-3.48 -3.94,-6.71 -6.95,-9.47 -3.01,-2.76 -6.42,-4.79 -10.03,-6.11 -3.75,-1.37 -7.71,-1.96 -11.63,-1.8 -3.92,0.17 -7.82,1.1 -11.43,2.79 -3.48,1.62 -6.71,3.94 -9.47,6.94 -2.76,3.01 -4.8,6.42 -6.11,10.03 -1.37,3.75 -1.96,7.71 -1.8,11.63 0.17,3.92 1.1,7.81 2.79,11.43 1.62,3.48 3.94,6.71 6.94,9.47 3.01,2.76 6.42,4.8 10.03,6.11 3.75,1.37 7.71,1.96 11.63,1.79z"/>
      <path class="fil0" d="M1133.33 21.19l-13.33 -12.23c-0.37,-0.32 -16.81,-14.2 -35.22,0.39l-9.17 9.99c-0.2,0.76 -1.8,7.34 4.78,7.48 1.39,-1.12 19.61,-15.21 39.18,-4.61l0.01 0.01c0.02,0.01 6.94,4.21 9.33,6.39 0.21,0.13 2.06,1.11 4.35,-1.61 2.28,-2.7 0.68,-4.94 0.14,-5.69l-0.09 -0.12zm-12.92 -12.69l13.35 12.26 0.05 0.05 0.1 0.14c0.61,0.85 2.41,3.37 -0.18,6.44 -2.78,3.3 -5.16,1.72 -5.17,1.72l-0.04 -0.03c-2.29,-2.1 -9.02,-6.19 -9.25,-6.34 -19.97,-10.81 -38.53,4.58 -38.58,4.62l-0.19 0.07c-7.91,-0.09 -5.46,-8.31 -5.45,-8.33l0.07 -0.12 9.23 -10.06 0.04 -0.03c19,-15.08 35.98,-0.43 36.03,-0.39l0.01 0.01z"/>
      <path class="fil0" d="M1132.92 21.55l-13.29 -12.2c-0.32,-0.27 -4.4,-3.65 -10.62,-5.27 -6.32,-1.65 -14.84,-1.47 -23.87,5.66l-9.05 9.86c-0.13,0.53 -0.45,2.1 -0.11,3.59 0.34,1.51 1.41,2.96 4.23,3.08 1.11,-0.86 5.93,-4.43 12.78,-6.67 7.29,-2.37 16.89,-3.26 26.83,2.13l0.04 0.02c0.01,0.01 3.11,1.89 5.88,3.78 1.38,0.94 2.68,1.89 3.5,2.64 0.18,0.09 0.78,0.34 1.64,0.02 0.57,-0.21 1.24,-0.66 1.98,-1.54 1.01,-1.2 1.16,-2.28 1.01,-3.13 -0.16,-0.87 -0.65,-1.55 -0.89,-1.89l-0.05 -0.08zm-12.14 -13.45l13.36 12.25c0.09,0.1 0.14,0.18 0.22,0.28 0.33,0.46 0.98,1.36 1.2,2.61 0.23,1.25 0.02,2.81 -1.41,4.5 -3.08,3.65 -5.83,1.85 -5.87,1.82l-0.12 -0.09c-0.76,-0.69 -2.02,-1.62 -3.37,-2.55 -2.65,-1.81 -5.62,-3.62 -5.79,-3.72 -19.57,-10.58 -37.78,4.43 -37.96,4.58l-0 -0.01 -0.16 0.1 -0.19 0.07 -0.18 0.03c-5.4,-0.06 -6.38,-3.61 -6.35,-6.26 0.02,-1.51 0.37,-2.72 0.38,-2.76 0.04,-0.09 0.07,-0.14 0.12,-0.24l0.07 -0.11c2.25,-2.45 7.1,-8.36 9.33,-10.15 19.26,-15.28 36.5,-0.56 36.72,-0.38l0.02 0.02z"/>
     </g>
    </g>
    <path class="fil0" d="M821.89 0l261.33 0c-31.55,35.19 -63.08,70.39 -94.66,105.56l-219.45 0 0 -52.78c0,-14.52 5.94,-27.71 15.51,-37.28 9.56,-9.56 22.76,-15.5 37.27,-15.5zm256.48 2.17l-256.48 0c-13.92,0 -26.57,5.69 -35.74,14.87 -9.17,9.17 -14.87,21.83 -14.87,35.74l0 50.61 216.32 0 90.77 -101.22z"/>
    <path class="fil0" d="M1126.12 424.03l-261.32 0c31.55,-35.19 63.08,-70.39 94.65,-105.56l219.45 0 0 52.78c0,14.52 -5.94,27.71 -15.5,37.28 -9.57,9.56 -22.76,15.5 -37.28,15.5zm-256.48 -2.17l256.48 0c13.92,0 26.57,-5.7 35.74,-14.87 9.17,-9.17 14.87,-21.83 14.87,-35.74l0 -50.61 -216.32 0 -90.77 101.22z"/>
    <g>
     <g>
      <rect class="fil1" x="959.36" y="319.33" width="1.26" height="28.96"/>
      <rect class="fil1" x="967.99" y="319.33" width="1.26" height="28.96"/>
      <rect class="fil1" x="976.7" y="319.33" width="1.26" height="28.96"/>
      <rect class="fil1" x="985.41" y="319.33" width="1.26" height="28.96"/>
      <rect class="fil1" x="993.34" y="319.33" width="2.63" height="43.14"/>
      <g>
       <rect class="fil1" x="1003.39" y="319.33" width="1.26" height="28.96"/>
       <rect class="fil1" x="1012.02" y="319.33" width="1.26" height="28.96"/>
       <rect class="fil1" x="1020.73" y="319.33" width="1.26" height="28.96"/>
       <rect class="fil1" x="1029.43" y="319.33" width="1.26" height="28.96"/>
       <rect class="fil1" x="1037.36" y="319.33" width="2.63" height="43.14"/>
      </g>
     </g>
     <g>
      <rect class="fil1" x="1048.51" y="319.33" width="1.26" height="28.96"/>
      <rect class="fil1" x="1057.15" y="319.33" width="1.26" height="28.96"/>
      <rect class="fil1" x="1065.85" y="319.33" width="1.26" height="28.96"/>
      <rect class="fil1" x="1074.56" y="319.33" width="1.26" height="28.96"/>
      <rect class="fil1" x="1082.49" y="319.33" width="2.63" height="43.14"/>
      <g>
       <rect class="fil1" x="1092.54" y="319.33" width="1.26" height="28.96"/>
       <rect class="fil1" x="1101.17" y="319.33" width="1.26" height="28.96"/>
       <rect class="fil1" x="1109.88" y="319.33" width="1.26" height="28.96"/>
       <rect class="fil1" x="1118.58" y="319.33" width="1.26" height="28.96"/>
       <rect class="fil1" x="1126.51" y="319.33" width="2.63" height="43.14"/>
      </g>
     </g>
     <rect class="fil1" x="1137.66" y="319.33" width="1.26" height="28.96"/>
     <rect class="fil1" x="1146.3" y="319.33" width="1.26" height="28.96"/>
     <rect class="fil1" x="1155" y="319.33" width="1.26" height="28.96"/>
     <rect class="fil1" x="1163.71" y="319.33" width="1.26" height="28.96"/>
     <rect class="fil1" x="1171.64" y="319.33" width="2.63" height="43.14"/>
    </g>
    <g>
     <g>
      <rect class="fil1" x="772.35" y="75.45" width="1.26" height="28.96"/>
      <rect class="fil1" x="780.98" y="75.45" width="1.26" height="28.96"/>
      <rect class="fil1" x="789.69" y="75.45" width="1.26" height="28.96"/>
      <rect class="fil1" x="798.39" y="75.45" width="1.26" height="28.96"/>
      <rect class="fil1" x="806.33" y="61.27" width="2.63" height="43.14"/>
      <g>
       <rect class="fil1" x="816.37" y="75.45" width="1.26" height="28.96"/>
       <rect class="fil1" x="825.01" y="75.45" width="1.26" height="28.96"/>
       <rect class="fil1" x="833.71" y="75.45" width="1.26" height="28.96"/>
       <rect class="fil1" x="842.42" y="75.45" width="1.26" height="28.96"/>
       <rect class="fil1" x="850.35" y="61.27" width="2.63" height="43.14"/>
      </g>
     </g>
     <g>
      <rect class="fil1" x="861.5" y="75.45" width="1.26" height="28.96"/>
      <rect class="fil1" x="870.13" y="75.45" width="1.26" height="28.96"/>
      <rect class="fil1" x="878.84" y="75.45" width="1.26" height="28.96"/>
      <rect class="fil1" x="887.54" y="75.45" width="1.26" height="28.96"/>
      <rect class="fil1" x="895.48" y="61.27" width="2.63" height="43.14"/>
      <g>
       <rect class="fil1" x="905.52" y="75.45" width="1.26" height="28.96"/>
       <rect class="fil1" x="914.16" y="75.45" width="1.26" height="28.96"/>
       <rect class="fil1" x="922.86" y="75.45" width="1.26" height="28.96"/>
       <rect class="fil1" x="931.57" y="75.45" width="1.26" height="28.96"/>
       <rect class="fil1" x="939.5" y="61.27" width="2.63" height="43.14"/>
      </g>
     </g>
     <rect class="fil1" x="950.65" y="75.45" width="1.26" height="28.96"/>
     <rect class="fil1" x="959.29" y="75.45" width="1.26" height="28.96"/>
     <rect class="fil1" x="967.99" y="75.45" width="1.26" height="28.96"/>
     <rect class="fil1" x="976.7" y="75.45" width="1.26" height="28.96"/>
     <rect class="fil1" x="984.63" y="61.27" width="2.63" height="43.14"/>
    </g>
   </g>
   <g>
    <path class="fil0" d="M948.35 517.54c4.36,0 8.13,1.54 11.3,4.63 3.23,3.23 4.81,7.04 4.81,11.44l0 175.59c0,4.5 -1.59,8.26 -4.81,11.31 -3.18,3.18 -6.94,4.76 -11.3,4.76l-0.36 0c-4.36,0 -8.13,-1.59 -11.3,-4.76 -3.23,-3.04 -4.81,-6.81 -4.81,-11.31l0 -175.59c0,-4.4 1.59,-8.21 4.81,-11.44 3.18,-3.09 6.94,-4.63 11.3,-4.63l0.36 0zm79.81 191.65c0,4.5 -1.59,8.26 -4.81,11.31 -3.18,3.18 -6.95,4.76 -11.31,4.76l-0.41 0c-4.31,0 -8.08,-1.59 -11.31,-4.76 -3.18,-3.04 -4.76,-6.81 -4.76,-11.31l0 -72.77c0,-17.75 6.31,-32.91 18.88,-45.49 12.57,-12.57 27.74,-18.88 45.49,-18.88 17.66,0 32.77,6.31 45.35,18.88 12.57,12.58 18.88,27.74 18.88,45.49l0 72.77c0,4.5 -1.59,8.26 -4.77,11.31 -3.04,3.18 -6.81,4.76 -11.3,4.76l-0.27 0c-4.45,0 -8.26,-1.59 -11.44,-4.76 -3.22,-3.04 -4.81,-6.81 -4.81,-11.31l0 -72.77c0,-8.76 -3.04,-16.25 -9.17,-22.47 -6.22,-6.22 -13.71,-9.31 -22.47,-9.31 -8.85,0 -16.39,3.09 -22.61,9.31 -6.12,6.22 -9.17,13.71 -9.17,22.47l0 72.77zm141 -191.65c4.36,0 8.13,1.54 11.3,4.63 3.22,3.23 4.81,7.04 4.81,11.44l0 38.45 19.93 0c4.36,0 8.13,1.59 11.3,4.77 3.23,3.22 4.82,7.04 4.82,11.44l0 0.27c0,4.54 -1.59,8.31 -4.82,11.3 -3.18,3.22 -6.94,4.81 -11.3,4.81l-19.93 0 0 78.85c0,2.59 0.86,4.76 2.63,6.53 1.77,1.77 3.99,2.63 6.67,2.63l10.62 0c4.36,0 8.13,1.59 11.3,4.81 3.23,3.18 4.82,6.99 4.82,11.44l0 0.27c0,4.5 -1.59,8.26 -4.82,11.31 -3.18,3.18 -6.94,4.76 -11.3,4.76l-10.62 0c-11.53,0 -21.43,-4.09 -29.64,-12.26 -8.17,-8.22 -12.26,-18.07 -12.26,-29.5l0 -149.9c0,-4.4 1.59,-8.21 4.77,-11.44 3.22,-3.09 6.99,-4.63 11.3,-4.63l0.41 0zm145.32 87.38c-12.26,0 -22.65,4.27 -31.28,12.89 -8.49,8.58 -12.76,19.02 -12.76,31.23l0 0.95 74.36 -33.41c-6.58,-7.76 -16.71,-11.66 -30.32,-11.66zm69.54 11.8c1.04,2.22 1.59,4.5 1.59,6.81 0,1.86 -0.36,3.72 -1.04,5.58 -1.54,4.18 -4.36,7.17 -8.54,9.03 -12.39,5.58 -28.73,12.93 -48.93,22.06 -25.1,11.35 -39.81,18.07 -44.17,20.11 6.76,8.49 17.25,12.76 31.55,12.76 9.49,0 18.07,-2.81 25.78,-8.4 7.53,-5.49 12.8,-12.58 15.84,-21.25 2.54,-7.27 7.72,-10.94 15.39,-10.94 5.54,0 9.9,2.31 13.21,6.94 1.99,2.82 3.04,5.81 3.04,8.9 0,1.86 -0.36,3.77 -1.09,5.72 -5.22,15.16 -14.39,27.42 -27.51,36.72 -13.3,9.67 -28.19,14.48 -44.67,14.48 -21.11,0 -39.17,-7.49 -54.15,-22.47 -14.98,-14.98 -22.47,-33.05 -22.47,-54.16 0,-21.06 7.49,-39.13 22.47,-54.11 14.98,-14.98 33.05,-22.47 54.15,-22.47 15.25,0 29.14,4.18 41.76,12.48 12.48,8.17 21.74,18.88 27.78,32.19zm95.79 -44.67c4.45,0 8.26,1.59 11.44,4.77 3.09,3.22 4.63,7.04 4.63,11.44l0 0.27c0,4.45 -1.54,8.22 -4.63,11.3 -3.18,3.22 -6.99,4.81 -11.44,4.81l-7.58 0c-7.26,0 -13.44,2.5 -18.47,7.58 -4.99,5.04 -7.49,11.21 -7.58,18.47l0 78.49c0,4.5 -1.59,8.26 -4.81,11.31 -3.18,3.18 -6.94,4.76 -11.3,4.76l-0.41 0c-4.31,0 -8.08,-1.59 -11.3,-4.76 -3.18,-3.04 -4.77,-6.81 -4.77,-11.31l0 -78.49c0.18,-16.21 5.9,-30.05 17.16,-41.49 11.44,-11.44 25.29,-17.16 41.49,-17.16l7.58 0zm54.07 0c4.5,0 8.26,1.59 11.31,4.77 3.18,3.22 4.76,7.04 4.76,11.44l0 120.93c0,4.5 -1.59,8.26 -4.76,11.31 -3.04,3.18 -6.81,4.76 -11.31,4.76l-0.27 0c-4.45,0 -8.26,-1.59 -11.44,-4.76 -3.18,-3.04 -4.81,-6.81 -4.81,-11.31l0 -120.93c0,-4.4 1.64,-8.22 4.81,-11.44 3.18,-3.18 6.99,-4.77 11.44,-4.77l0.27 0zm-0.13 -17.29c-5.18,0 -9.53,-1.82 -13.16,-5.45 -3.63,-3.63 -5.45,-8.03 -5.45,-13.16 0,-5.04 1.82,-9.4 5.45,-13.03 3.63,-3.63 7.99,-5.45 13.16,-5.45 5.04,0 9.39,1.82 13.02,5.45 3.72,3.54 5.59,7.9 5.59,13.03 0,5.22 -1.86,9.62 -5.59,13.16 -3.63,3.63 -7.99,5.45 -13.02,5.45zm122.39 50.16c-12.26,0 -22.66,4.27 -31.28,12.89 -8.49,8.58 -12.76,19.02 -12.76,31.23 0,12.17 4.27,22.52 12.76,31.14 8.62,8.58 19.02,12.89 31.28,12.89 12.12,0 22.52,-4.31 31.09,-12.89 8.62,-8.63 12.89,-18.97 12.89,-31.14 0,-12.21 -4.27,-22.65 -12.89,-31.23 -8.58,-8.63 -18.98,-12.89 -31.09,-12.89zm0 -32.87c21.06,0 39.13,7.49 54.11,22.47 14.98,14.98 22.47,33.05 22.47,54.11 0,21.11 -7.49,39.18 -22.47,54.16 -14.98,14.98 -33.05,22.47 -54.11,22.47 -21.11,0 -39.18,-7.49 -54.16,-22.47 -14.98,-14.98 -22.47,-33.05 -22.47,-54.16 0,-21.06 7.49,-39.13 22.47,-54.11 14.98,-14.98 33.05,-22.47 54.16,-22.47zm167.33 0c4.45,0 8.26,1.59 11.44,4.77 3.09,3.22 4.63,7.04 4.63,11.44l0 0.27c0,4.45 -1.54,8.22 -4.63,11.3 -3.18,3.22 -6.99,4.81 -11.44,4.81l-7.58 0c-7.27,0 -13.44,2.5 -18.48,7.58 -4.99,5.04 -7.49,11.21 -7.58,18.47l0 78.49c0,4.5 -1.59,8.26 -4.82,11.31 -3.18,3.18 -6.94,4.76 -11.3,4.76l-0.41 0c-4.31,0 -8.08,-1.59 -11.3,-4.76 -3.18,-3.04 -4.76,-6.81 -4.76,-11.31l0 -78.49c0.18,-16.21 5.9,-30.05 17.16,-41.49 11.44,-11.44 25.29,-17.16 41.49,-17.16l7.58 0zm73.87 32.59c-3.9,0 -7.17,1.32 -9.85,3.99 -2.63,2.72 -3.95,5.99 -3.95,9.81 0,5.36 2.54,9.35 7.67,11.98 1.77,1 9.21,3.18 22.24,6.67 10.53,3 18.39,6.94 23.52,11.8 7.35,7.04 11.03,16.98 11.03,29.96 0,12.76 -4.5,23.7 -13.53,32.82 -9.17,9.03 -20.11,13.57 -32.87,13.57l-34.73 0c-4.31,0 -8.08,-1.59 -11.31,-4.76 -3.18,-3.04 -4.76,-6.81 -4.76,-11.31l0 -0.27c0,-4.45 1.59,-8.26 4.76,-11.44 3.23,-3.22 6.99,-4.81 11.31,-4.81l36.04 0c3.9,0 7.17,-1.32 9.85,-3.99 2.68,-2.63 4,-5.95 4,-9.81 0,-4.9 -2.54,-8.58 -7.58,-11.08 -1.32,-0.59 -8.76,-2.81 -22.34,-6.63 -10.58,-3.09 -18.43,-7.17 -23.56,-12.26 -7.35,-7.17 -11.03,-17.34 -11.03,-30.46 0,-12.76 4.54,-23.65 13.57,-32.68 9.12,-9.12 20.06,-13.71 32.82,-13.71l24.51 0c4.4,0 8.21,1.59 11.44,4.77 3.18,3.22 4.76,7.04 4.76,11.44l0 0.27c0,4.54 -1.59,8.31 -4.76,11.3 -3.23,3.22 -7.04,4.81 -11.44,4.81l-25.83 0z"/>
    <path class="fil0" d="M5.86 534.22c0,-2.58 0.46,-4.99 1.38,-7.25 0.92,-2.25 2.29,-4.32 4.13,-6.21l0.06 -0.06c1.87,-1.81 3.93,-3.18 6.18,-4.09 2.27,-0.92 4.7,-1.38 7.29,-1.38l82.33 0.01c4.3,0.05 8.27,0.85 11.92,2.41 3.66,1.57 6.98,3.88 9.98,6.95 3,3.05 5.26,6.42 6.76,10.09 1.52,3.71 2.28,7.68 2.28,11.91 0,6.33 -1.7,12.12 -5.11,17.38l-88.24 126.38 76.73 0c2.65,0 5.11,0.48 7.37,1.43 2.26,0.96 4.28,2.4 6.05,4.3 1.85,1.85 3.25,3.88 4.18,6.11 0.95,2.28 1.43,4.72 1.43,7.32l0 0.27c0,2.62 -0.48,5.06 -1.43,7.32 -0.95,2.24 -2.36,4.25 -4.23,6.04 -1.76,1.85 -3.76,3.25 -6,4.19 -2.26,0.95 -4.71,1.43 -7.36,1.43l-92.65 0 -0.28 -0.02c-4.06,-0.4 -7.78,-1.45 -11.19,-3.16 -3.41,-1.72 -6.48,-4.08 -9.2,-7.08 -2.72,-2.98 -4.77,-6.25 -6.14,-9.8 -1.38,-3.56 -2.07,-7.39 -2.07,-11.45 0,-2.63 0.34,-5.24 1,-7.82 0.66,-2.58 1.64,-5.09 2.93,-7.51l0.19 -0.31 89.5 -128.11 -68.74 0c-2.59,0 -5.03,-0.48 -7.3,-1.41 -2.26,-0.92 -4.32,-2.29 -6.17,-4.09l-0.05 -0.05c-1.84,-1.87 -3.22,-3.93 -4.14,-6.19 -0.92,-2.26 -1.38,-4.69 -1.38,-7.29l0 -0.27zm6.78 -5.07c-0.63,1.55 -0.95,3.24 -0.95,5.07l0 0.27c0,1.85 0.32,3.55 0.95,5.1 0.63,1.54 1.58,2.96 2.86,4.27 1.32,1.28 2.75,2.24 4.3,2.88 1.54,0.63 3.24,0.95 5.09,0.95l79.89 0 -95.76 137.09c-1.06,2.01 -1.85,4.05 -2.38,6.11 -0.53,2.05 -0.79,4.19 -0.79,6.39 0,3.37 0.56,6.5 1.66,9.36 1.11,2.89 2.79,5.55 5.01,7.98 2.28,2.49 4.77,4.42 7.52,5.8 2.7,1.35 5.67,2.21 8.92,2.55l92.6 0c1.89,0 3.6,-0.32 5.1,-0.95 1.5,-0.63 2.86,-1.59 4.08,-2.89l0.12 -0.12c1.31,-1.24 2.29,-2.62 2.93,-4.13 0.64,-1.5 0.96,-3.19 0.96,-5.06l0 -0.27c0,-1.84 -0.32,-3.53 -0.97,-5.07 -0.65,-1.55 -1.64,-2.99 -2.97,-4.3l-0.09 -0.09c-1.22,-1.31 -2.58,-2.29 -4.08,-2.92 -1.51,-0.64 -3.21,-0.96 -5.09,-0.96l-87.87 0 94.52 -135.37c2.77,-4.27 4.15,-9.02 4.15,-14.22 0,-3.5 -0.61,-6.74 -1.83,-9.7 -1.22,-2.97 -3.07,-5.72 -5.54,-8.24l-0.01 -0.01c-2.45,-2.51 -5.15,-4.39 -8.09,-5.65 -2.95,-1.26 -6.17,-1.92 -9.67,-1.96l-82.3 0.01c-1.85,0 -3.56,0.31 -5.1,0.94 -1.55,0.63 -2.98,1.58 -4.28,2.84 -1.28,1.33 -2.24,2.77 -2.87,4.32zm218.18 79.3c-5.77,0 -11.06,0.99 -15.9,2.98 -4.85,1.99 -9.28,5.01 -13.32,9.04 -3.98,4.02 -6.96,8.46 -8.94,13.3 -1.55,3.81 -2.5,7.91 -2.83,12.28l66.31 -29.8c-2.45,-2.14 -5.31,-3.85 -8.57,-5.1 -4.7,-1.81 -10.29,-2.71 -16.76,-2.71zm-18.11 -2.39c5.58,-2.29 11.61,-3.44 18.11,-3.44 7.13,0 13.42,1.04 18.83,3.13 5.53,2.13 10.11,5.32 13.71,9.58l2.5 2.95 -81.99 36.84 0 -5.45c0,-6.46 1.15,-12.49 3.42,-18.07 2.28,-5.58 5.68,-10.65 10.19,-15.21 4.59,-4.59 9.66,-8.03 15.23,-10.32zm90.3 10.09c0.6,1.29 1.07,2.6 1.37,3.9 0.32,1.36 0.48,2.73 0.48,4.1 0,1.09 -0.11,2.2 -0.32,3.32 -0.2,1.08 -0.51,2.17 -0.9,3.25 -0.91,2.47 -2.21,4.6 -3.89,6.39 -1.68,1.78 -3.74,3.21 -6.18,4.31l-48.93 22.07 -28.06 12.72 -12.49 5.71c2.6,2.49 5.68,4.45 9.23,5.89 4.9,1.98 10.73,2.98 17.51,2.98 4.45,0 8.66,-0.65 12.65,-1.96 4,-1.31 7.81,-3.27 11.42,-5.89 3.53,-2.56 6.52,-5.49 8.98,-8.8 2.46,-3.3 4.41,-6.99 5.83,-11.04 1.47,-4.21 3.76,-7.42 6.83,-9.6 3.08,-2.19 6.86,-3.3 11.3,-3.3 3.24,0 6.17,0.7 8.79,2.08 2.61,1.37 4.86,3.41 6.78,6.09 1.17,1.66 2.06,3.37 2.66,5.13 0.61,1.79 0.92,3.62 0.92,5.46 0,1.09 -0.11,2.22 -0.33,3.37 -0.21,1.08 -0.51,2.17 -0.93,3.28 -2.69,7.86 -6.44,14.98 -11.22,21.37 -4.76,6.36 -10.54,11.95 -17.33,16.77 -6.89,5.01 -14.21,8.77 -21.96,11.28 -7.75,2.51 -15.89,3.76 -24.41,3.76 -10.93,0 -21.1,-1.95 -30.5,-5.85 -9.39,-3.9 -17.96,-9.72 -25.72,-17.48 -7.75,-7.76 -13.58,-16.33 -17.48,-25.72 -3.9,-9.4 -5.85,-19.57 -5.85,-30.5 0,-10.91 1.95,-21.07 5.85,-30.46 3.9,-9.38 9.72,-17.96 17.47,-25.71 7.76,-7.76 16.33,-13.58 25.72,-17.48 9.39,-3.9 19.57,-5.85 30.5,-5.85 7.89,0 15.46,1.09 22.7,3.25 7.21,2.16 14.09,5.4 20.65,9.72 6.46,4.22 12.1,9.12 16.92,14.7 4.82,5.58 8.79,11.82 11.92,18.72zm-4.29 5.22c-0.23,-0.95 -0.56,-1.89 -0.98,-2.81l-0.02 -0.03c-2.9,-6.4 -6.58,-12.17 -11.02,-17.31 -4.45,-5.15 -9.68,-9.69 -15.7,-13.64 -6.06,-4 -12.43,-7 -19.13,-9 -6.67,-2 -13.69,-3 -21.03,-3 -10.18,0 -19.61,1.8 -28.27,5.39 -8.66,3.6 -16.61,9 -23.83,16.23 -7.22,7.22 -12.63,15.17 -16.22,23.82 -3.6,8.66 -5.39,18.07 -5.39,28.23 0,10.18 1.8,19.6 5.39,28.27 3.6,8.66 9,16.61 16.23,23.83 7.22,7.22 15.17,12.63 23.83,16.22 8.66,3.59 18.08,5.39 28.27,5.39 7.95,0 15.5,-1.15 22.64,-3.47 7.14,-2.31 13.91,-5.8 20.32,-10.46l0.02 -0.01c6.32,-4.48 11.68,-9.66 16.07,-15.53 4.39,-5.86 7.85,-12.46 10.36,-19.77l0.04 -0.07c0.3,-0.81 0.53,-1.61 0.68,-2.42 0.14,-0.76 0.22,-1.52 0.22,-2.29 0,-1.22 -0.21,-2.43 -0.6,-3.6 -0.42,-1.23 -1.05,-2.44 -1.89,-3.61 -1.4,-1.94 -2.98,-3.39 -4.76,-4.33 -1.76,-0.93 -3.79,-1.39 -6.09,-1.39 -3.23,0 -5.88,0.74 -7.94,2.2 -2.07,1.47 -3.65,3.74 -4.71,6.78 -1.62,4.62 -3.83,8.81 -6.65,12.59 -2.81,3.77 -6.22,7.12 -10.23,10.04 -4.1,2.98 -8.45,5.22 -13.04,6.72 -4.59,1.5 -9.41,2.25 -14.45,2.25 -7.52,0 -14.08,-1.14 -19.69,-3.41 -5.72,-2.32 -10.43,-5.81 -14.13,-10.45l-2.29 -2.87 3.34 -1.57c2.36,-1.11 7.73,-3.58 16.12,-7.39 8.36,-3.81 17.95,-8.16 28.09,-12.74l48.93 -22.06c1.74,-0.77 3.18,-1.77 4.33,-2.99 1.15,-1.21 2.03,-2.68 2.66,-4.39 0.29,-0.78 0.51,-1.55 0.65,-2.33 0.14,-0.73 0.21,-1.48 0.21,-2.26 0,-0.95 -0.11,-1.87 -0.32,-2.78zm47.69 -106.14c2.53,0 4.93,0.46 7.18,1.39 2.24,0.91 4.29,2.27 6.14,4.08l0.04 0.02c1.88,1.88 3.29,3.95 4.24,6.21 0.95,2.28 1.43,4.71 1.43,7.29l0 35.54 17.01 0c5.15,0 9.61,1.87 13.35,5.62 1.89,1.88 3.31,3.95 4.25,6.21 0.95,2.28 1.43,4.71 1.43,7.29l0 0.27c0,2.65 -0.48,5.1 -1.44,7.36 -0.96,2.27 -2.39,4.29 -4.3,6.07 -1.84,1.85 -3.86,3.24 -6.06,4.17 -2.26,0.96 -4.68,1.44 -7.23,1.44l-17.01 0 0 75.93c0,0.94 0.14,1.77 0.44,2.49 0.28,0.71 0.73,1.38 1.34,1.98 0.59,0.6 1.25,1.04 1.99,1.33 0.76,0.3 1.63,0.45 2.62,0.45l10.62 0c2.56,0 4.97,0.48 7.23,1.43 2.22,0.95 4.27,2.36 6.12,4.24 1.89,1.87 3.3,3.92 4.25,6.17 0.95,2.28 1.43,4.72 1.43,7.32l0 0.27c0,2.62 -0.48,5.06 -1.44,7.32 -0.96,2.27 -2.39,4.3 -4.3,6.1 -1.84,1.82 -3.86,3.2 -6.07,4.13 -2.26,0.95 -4.67,1.43 -7.22,1.43l-10.62 0c-6.14,0 -11.86,-1.1 -17.17,-3.3 -5.3,-2.19 -10.15,-5.47 -14.52,-9.81l-0.01 -0.02c-4.36,-4.38 -7.63,-9.21 -9.81,-14.47 -2.19,-5.29 -3.3,-10.99 -3.3,-17.08l0 -149.89c0,-5.19 1.87,-9.69 5.61,-13.48l0.06 -0.06c1.87,-1.8 3.93,-3.16 6.15,-4.06 2.27,-0.92 4.65,-1.39 7.16,-1.39l0.41 0zm4.99 6.76c-1.5,-0.62 -3.17,-0.93 -4.99,-0.93l-0.41 0c-1.8,0 -3.45,0.31 -4.96,0.92 -1.52,0.63 -2.96,1.58 -4.29,2.85 -2.6,2.65 -3.91,5.78 -3.91,9.39l0 149.89c0,5.35 0.95,10.3 2.84,14.85 1.89,4.57 4.75,8.77 8.56,12.6 3.83,3.81 8.05,6.67 12.63,8.56 4.57,1.89 9.56,2.84 14.96,2.84l10.62 0c1.81,0 3.46,-0.32 4.97,-0.95 1.53,-0.64 2.96,-1.63 4.29,-2.96l0.05 -0.06c1.31,-1.24 2.29,-2.62 2.93,-4.13 0.64,-1.5 0.95,-3.19 0.95,-5.06l0 -0.27c0,-1.84 -0.32,-3.53 -0.96,-5.07 -0.65,-1.55 -1.65,-2.99 -2.97,-4.3l-0.03 -0.04c-1.32,-1.33 -2.75,-2.33 -4.28,-2.98 -1.5,-0.64 -3.16,-0.96 -4.96,-0.96l-10.62 0c-1.69,0 -3.28,-0.28 -4.74,-0.86 -1.48,-0.58 -2.82,-1.46 -3.99,-2.64 -1.16,-1.15 -2.04,-2.47 -2.63,-3.93 -0.58,-1.45 -0.87,-3 -0.87,-4.66l0 -81.76 22.84 0c1.8,0 3.45,-0.32 4.96,-0.96 1.54,-0.65 2.96,-1.64 4.28,-2.98l0.09 -0.09c1.31,-1.22 2.28,-2.58 2.92,-4.08 0.64,-1.5 0.95,-3.2 0.95,-5.09l0 -0.27c0,-1.82 -0.32,-3.5 -0.96,-5.04 -0.65,-1.55 -1.65,-3 -2.99,-4.34 -2.6,-2.61 -5.68,-3.91 -9.25,-3.91l-22.84 0 0 -41.36c0,-1.82 -0.32,-3.5 -0.97,-5.04 -0.65,-1.55 -1.65,-3 -2.99,-4.34 -1.31,-1.27 -2.73,-2.22 -4.25,-2.85zm140.33 86.46c-5.76,0 -11.06,0.99 -15.9,2.98 -4.85,1.99 -9.29,5.01 -13.32,9.04 -3.98,4.02 -6.96,8.46 -8.94,13.3 -1.98,4.83 -2.96,10.13 -2.96,15.88 0,5.72 0.99,10.98 2.96,15.79 1.98,4.83 4.97,9.26 8.95,13.31 4.03,4.01 8.47,7.02 13.31,9.02 4.84,1.99 10.13,3 15.9,3 5.68,0 10.94,-1 15.76,-3 4.82,-2 9.25,-5.02 13.28,-9.04 8.05,-8.05 12.03,-17.72 12.03,-29.08 0,-5.75 -1,-11.06 -3,-15.91 -1.99,-4.83 -5,-9.26 -9.03,-13.27l-0.01 -0.01c-4,-4.02 -8.42,-7.03 -13.24,-9.03 -4.83,-2 -10.09,-3 -15.79,-3zm-18.1 -2.39c5.58,-2.29 11.61,-3.44 18.1,-3.44 6.45,0 12.46,1.15 18.02,3.46 5.52,2.29 10.57,5.72 15.12,10.29l0.01 0.01c4.57,4.55 8,9.61 10.29,15.16 2.31,5.59 3.46,11.63 3.46,18.12 0,12.97 -4.55,24.01 -13.75,33.2 -4.55,4.55 -9.62,7.99 -15.17,10.29 -5.55,2.3 -11.56,3.46 -17.99,3.46 -6.49,0 -12.53,-1.16 -18.1,-3.46 -5.57,-2.3 -10.64,-5.73 -15.22,-10.29l-0.02 -0.02c-4.51,-4.58 -7.9,-9.64 -10.17,-15.18 -2.28,-5.56 -3.42,-11.56 -3.42,-18 0,-6.46 1.14,-12.49 3.42,-18.07 2.28,-5.58 5.68,-10.65 10.19,-15.21 4.59,-4.59 9.67,-8.03 15.23,-10.32zm18.1 -36.3c10.91,0 21.07,1.95 30.46,5.85 9.38,3.89 17.95,9.72 25.71,17.47 7.75,7.75 13.58,16.33 17.47,25.71 3.9,9.39 5.85,19.55 5.85,30.46 0,10.93 -1.95,21.1 -5.85,30.5 -3.9,9.39 -9.72,17.96 -17.48,25.72 -7.75,7.75 -16.33,13.58 -25.71,17.47 -9.39,3.9 -19.55,5.85 -30.46,5.85 -10.93,0 -21.1,-1.95 -30.5,-5.85 -9.39,-3.9 -17.96,-9.72 -25.72,-17.48 -7.76,-7.76 -13.58,-16.33 -17.48,-25.72 -3.9,-9.4 -5.85,-19.57 -5.85,-30.5 0,-10.91 1.95,-21.07 5.85,-30.46 3.89,-9.38 9.72,-17.96 17.47,-25.71 7.75,-7.76 16.33,-13.58 25.72,-17.48 9.4,-3.9 19.57,-5.85 30.5,-5.85zm28.23 11.22c-8.66,-3.59 -18.07,-5.39 -28.23,-5.39 -10.18,0 -19.61,1.8 -28.27,5.39 -8.66,3.6 -16.61,9 -23.83,16.23 -7.22,7.22 -12.63,15.17 -16.22,23.82 -3.59,8.66 -5.39,18.07 -5.39,28.23 0,10.18 1.8,19.6 5.39,28.27 3.59,8.66 9,16.61 16.22,23.83 7.22,7.22 15.17,12.63 23.83,16.22 8.66,3.59 18.09,5.39 28.27,5.39 10.16,0 19.57,-1.8 28.23,-5.39 8.65,-3.6 16.6,-9 23.82,-16.22 7.22,-7.22 12.63,-15.17 16.23,-23.83 3.59,-8.66 5.39,-18.09 5.39,-28.27 0,-10.16 -1.8,-19.57 -5.39,-28.23 -3.59,-8.65 -9,-16.6 -16.22,-23.82 -7.22,-7.22 -15.17,-12.63 -23.82,-16.22zm139.1 -11.22c5.25,0 9.75,1.87 13.5,5.62l0.03 0.05c1.8,1.88 3.16,3.95 4.08,6.2 0.92,2.26 1.38,4.68 1.38,7.25l0 0.27c0,2.58 -0.46,5 -1.39,7.25 -0.92,2.27 -2.29,4.31 -4.1,6.11 -1.87,1.89 -3.93,3.3 -6.18,4.24 -2.27,0.95 -4.71,1.43 -7.32,1.43l-7.58 0c-3.28,0 -6.28,0.55 -9,1.67 -2.7,1.11 -5.18,2.79 -7.42,5.05 -2.23,2.25 -3.9,4.74 -5,7.45 -1.12,2.73 -1.69,5.72 -1.74,8.98l0.01 78.49c0,2.62 -0.48,5.06 -1.43,7.32 -0.95,2.24 -2.36,4.25 -4.23,6.04 -3.74,3.75 -8.2,5.62 -13.36,5.62l-0.41 0c-5.1,0 -9.55,-1.87 -13.34,-5.61 -1.86,-1.78 -3.27,-3.81 -4.22,-6.05 -0.95,-2.26 -1.43,-4.7 -1.43,-7.32l0.01 -78.51c0.09,-8.48 1.64,-16.36 4.64,-23.61 3.01,-7.27 7.46,-13.9 13.35,-19.89l0.01 -0.02c5.98,-5.98 12.62,-10.48 19.91,-13.49 7.29,-3.01 15.17,-4.52 23.64,-4.52l7.58 0zm9.38 9.74c-2.61,-2.6 -5.74,-3.91 -9.38,-3.91l-7.58 0c-7.74,0 -14.88,1.36 -21.43,4.06 -6.54,2.7 -12.54,6.78 -18,12.24 -5.36,5.44 -9.4,11.45 -12.11,18 -2.72,6.57 -4.12,13.72 -4.21,21.44l0.02 78.49c0,1.87 0.32,3.56 0.95,5.07 0.64,1.51 1.61,2.89 2.91,4.14l0.02 0.02c2.65,2.61 5.74,3.92 9.26,3.92l0.41 0c3.55,0 6.63,-1.31 9.24,-3.91l0.07 -0.06c1.31,-1.24 2.29,-2.62 2.93,-4.13 0.64,-1.5 0.96,-3.19 0.96,-5.06l0.01 -78.52c0.05,-3.99 0.77,-7.71 2.17,-11.13 1.41,-3.45 3.49,-6.57 6.25,-9.36 2.79,-2.81 5.9,-4.92 9.33,-6.32 3.46,-1.42 7.2,-2.12 11.2,-2.12l7.58 0c1.84,0 3.53,-0.32 5.07,-0.97 1.56,-0.65 2.99,-1.64 4.3,-2.97l0.01 -0.02c1.28,-1.28 2.23,-2.68 2.85,-4.18 0.62,-1.51 0.93,-3.19 0.93,-5.06l0 -0.27c0,-1.83 -0.32,-3.52 -0.94,-5.07 -0.62,-1.55 -1.57,-2.99 -2.83,-4.31zm99.85 -9.74c10.93,0 21.1,1.95 30.5,5.85 9.39,3.9 17.96,9.72 25.72,17.48 7.75,7.75 13.58,16.33 17.47,25.71 3.9,9.39 5.85,19.55 5.85,30.46l0 60.56c0,2.62 -0.48,5.06 -1.43,7.32 -0.95,2.25 -2.36,4.27 -4.22,6.05 -3.79,3.74 -8.24,5.61 -13.34,5.61l-0.41 0c-5.13,0 -9.56,-1.85 -13.29,-5.56 -1.91,-1.8 -3.34,-3.83 -4.3,-6.09 -0.2,-0.47 -0.38,-0.95 -0.53,-1.43 -4.5,3.78 -9.69,6.74 -15.56,8.88 -7.68,2.8 -16.5,4.2 -26.45,4.2 -10.91,0 -21.07,-1.95 -30.46,-5.85 -9.38,-3.89 -17.95,-9.72 -25.71,-17.47 -7.76,-7.76 -13.58,-16.33 -17.48,-25.72 -3.9,-9.4 -5.85,-19.57 -5.85,-30.5 0,-10.91 1.95,-21.07 5.85,-30.46 3.89,-9.38 9.72,-17.96 17.47,-25.71 7.75,-7.76 16.33,-13.58 25.71,-17.47 9.39,-3.9 19.55,-5.85 30.46,-5.85zm28.27 11.22c-8.66,-3.59 -18.09,-5.39 -28.27,-5.39 -10.16,0 -19.57,1.8 -28.23,5.39 -8.65,3.59 -16.6,9 -23.82,16.22 -7.22,7.22 -12.63,15.17 -16.22,23.82 -3.59,8.66 -5.39,18.07 -5.39,28.23 0,10.18 1.8,19.6 5.39,28.27 3.6,8.66 9,16.61 16.23,23.83 7.22,7.22 15.17,12.63 23.82,16.22 8.66,3.59 18.07,5.39 28.23,5.39 9.3,0 17.47,-1.28 24.47,-3.84 6.9,-2.52 12.72,-6.29 17.44,-11.31l5.03 1.99c0,1.87 0.32,3.55 0.96,5.06 0.64,1.51 1.62,2.89 2.93,4.13l0.06 0.06c2.61,2.61 5.69,3.91 9.25,3.91l0.41 0c3.52,0 6.62,-1.31 9.26,-3.92l0.02 -0.02c1.31,-1.25 2.28,-2.63 2.91,-4.14 0.64,-1.5 0.95,-3.19 0.95,-5.07l0 -60.56c0,-10.16 -1.8,-19.57 -5.39,-28.23 -3.6,-8.65 -9,-16.6 -16.22,-23.82 -7.22,-7.22 -15.17,-12.63 -23.83,-16.23zm-28.27 27.21c-5.75,0 -11.06,1 -15.91,3 -4.83,1.99 -9.26,5 -13.27,9.03 -3.99,4.01 -6.96,8.43 -8.94,13.25 -1.98,4.82 -2.96,10.09 -2.96,15.8 0,5.75 0.98,11.06 2.96,15.91 1.97,4.84 4.96,9.28 8.95,13.32 4.01,3.97 8.45,6.95 13.28,8.93 4.83,1.97 10.13,2.96 15.88,2.96 5.76,0 11.06,-0.99 15.87,-2.96 4.82,-1.97 9.23,-4.96 13.21,-8.94 4.05,-4.04 7.06,-8.48 9.05,-13.32 1.99,-4.83 2.98,-10.13 2.98,-15.9 0,-5.7 -1,-10.97 -3,-15.79 -1.99,-4.82 -5,-9.24 -9.03,-13.25l-0.01 -0.01c-4.01,-4.03 -8.42,-7.04 -13.24,-9.03 -4.83,-2 -10.11,-2.99 -15.84,-2.99zm-18.12 -2.38c5.59,-2.3 11.63,-3.45 18.12,-3.45 6.46,0 12.48,1.15 18.05,3.45 5.54,2.29 10.59,5.72 15.14,10.29l0.01 0.01c4.57,4.55 7.99,9.59 10.29,15.12 2.31,5.56 3.46,11.58 3.46,18.02 0,6.49 -1.15,12.53 -3.44,18.1 -2.29,5.57 -5.73,10.64 -10.3,15.22 -4.51,4.52 -9.55,7.92 -15.12,10.2 -5.56,2.28 -11.59,3.42 -18.08,3.42 -6.46,0 -12.49,-1.15 -18.07,-3.42 -5.58,-2.28 -10.66,-5.67 -15.21,-10.18l-0.02 -0.01c-4.53,-4.58 -7.93,-9.66 -10.2,-15.23 -2.27,-5.56 -3.4,-11.59 -3.4,-18.09 0,-6.44 1.14,-12.44 3.42,-18.01 2.27,-5.53 5.66,-10.58 10.19,-15.13 4.55,-4.58 9.62,-8.01 15.18,-10.3z"/>
   </g>
  </g>
 </g>
</svg>
